<svg xmlns="http://www.w3.org/2000/svg" viewBox="0 0 1920 1920" xml:space="preserve"><path fill="#416877" d="M628.355 99.493c3.43-.96 7.27-2.04 10.74-.68 5.08 7.4 9.07 15.52 13.75 23.2 14.14 24.49 28.26 49 42.44 73.47-17.84-3.65-36.01-6.19-54.26-5.93-7.72-.45-15.29 1.41-23 1.23 3.34-.53 6.7-.85 10.08-1.14-10.89-19.28-22.1-38.39-33.15-57.58-1.25-2.41-3.6-4.85-2.66-7.79 2.04-4.61 6.14-7.84 9.93-10.98 7.89-5.94 16.66-10.88 26.13-13.8zm652.52-.64c4.74-1.76 9.84.37 14.39 1.85 10.62 4.19 20.79 10.09 28.83 18.3 2.16 2.4 5.14 5.8 3.15 9.17-11.75 20.51-23.71 40.89-35.36 61.44 3.67.36 7.35.72 11.01 1.26-7.01.08-13.91-1.36-20.9-1.34-19.23-.15-38.52 1.79-57.3 5.97 16.01-27.61 31.95-55.28 47.92-82.92 2.8-4.54 5.04-9.46 8.26-13.73z"/><path fill="#2C2E35" d="M618.025 190.783c7.71.18 15.28-1.68 23-1.23 18.25-.26 36.42 2.28 54.26 5.93 7.32 12.74 14.66 25.46 22.04 38.17 8.97 15.67 18.11 31.24 26.99 46.96-36.33-7.78-74.76-8.78-110.62 1.88-.59-.2-1.76-.59-2.34-.79-15.74-28.12-32.28-55.78-48.14-83.83l-.11-.19c11.42-3.25 23.09-5.79 34.92-6.9z"/><path fill="#2C2F35" d="M1224.695 195.503c18.78-4.18 38.07-6.12 57.3-5.97 6.99-.02 13.89 1.42 20.9 1.34 11.53 1.18 22.94 3.57 34.04 6.89-14.91 25.79-29.8 51.59-44.69 77.39-1.44 2.34-2.49 4.97-4.37 7-2.18.49-4.28-.54-6.35-.98-34.56-9.29-71.2-7.96-105.98-.54 9.17-15.71 18.17-31.52 27.3-47.25 7.29-12.63 14.58-25.25 21.85-37.88z"/><path fill="#FECF67" d="M909.985 194.623c6.04-.09 12.09-.23 18.11-.86 20.31-.49 40.62-.38 60.93-.1 11.67.58 23.3 1.49 34.96 2.23 27.48 2.84 55.04 5.75 82.07 11.69 32.86 6.18 65.09 15.27 96.79 25.8-9.13 15.73-18.13 31.54-27.3 47.25-5.88 9.42-11.48 19.05-16.81 28.79-3.17 8.7-9.66 15.54-13.62 23.82-5.31 11.33-12.69 21.48-18.82 32.35-13.73 24.65-28.17 48.92-42.16 73.43-2.03 3.78-4.76 7.25-6 11.41-3.01 3.2-4.41 7.46-6.59 11.19-2.03 3.78-5.19 6.84-6.98 10.77-3.11 6.67-7.85 12.42-10.95 19.09-4.07 8.64-9.87 16.29-14.42 24.66-3.71 6.19-6.9 12.68-10.49 18.94-16.44 28.27-32.71 56.65-49.1 84.95-6.25 10.64-12.25 21.43-18.56 32.03-.29 1.23-2.09.73-2.36-.22-5.78-10.1-11.57-20.21-17.44-30.26-13.73-23.87-27.53-47.71-41.28-71.56-2.71-4.78-5.67-9.43-8.03-14.39-6.5-11.92-13.62-23.5-20.37-35.26-2.13-3.57-3.65-7.5-6.23-10.78-5.92-6.98-8.92-15.77-13.41-23.62-3.31-5.19-6.34-10.62-10.06-15.52-1.24-4.18-3.99-7.66-6.01-11.46-14.02-24.49-28.42-48.76-42.17-73.39-5.32-8.88-10.51-17.83-15.39-26.95-5.98-9.85-12.22-19.57-17.3-29.92-5.9-9.17-10.57-19.07-16.68-28.12-8.88-15.72-18.02-31.29-26.99-46.96 19.47-7.27 39.59-12.69 59.7-17.91 32.58-8.11 65.66-14.26 99.05-17.84 11.32-.9 22.59-2.45 33.91-3.28z"/><path fill="#FBE1BA" d="M498.235 246.693c24.55-21.81 53.2-39.82 84.98-48.82 15.86 28.05 32.4 55.71 48.14 83.83.58.2 1.75.59 2.34.79 35.86-10.66 74.29-9.66 110.62-1.88 6.11 9.05 10.78 18.95 16.68 28.12 5.08 10.35 11.32 20.07 17.3 29.92 4.88 9.12 10.07 18.07 15.39 26.95-36.85-8.47-76.03-8.8-112.46 1.95-15.26-26.96-31-53.64-46.34-80.55-.92-1.79-2.36-3.2-3.95-4.38-9.12 3.73-18.6 6.63-27.43 11.09-16.78 7.98-32.39 18.28-46.82 29.96-2.89 2.36-5.63 4.93-8.8 6.93.02.99.05 1.99.1 2.98 7.11 11.22 13.33 22.99 20.12 34.41 9.32 16.28 18.87 32.42 28.06 48.77-15.04 13.11-28.6 27.8-41.53 42.95-9.46 10.89-17.94 22.59-27.15 33.66-16.01-27.77-32.04-55.53-48.09-83.27-.33-.07-1-.22-1.33-.29l-.57.37c-21.19 27.93-40.91 57.01-62.23 84.87-16.3-27.79-32.02-55.94-48.52-83.59l-.87-.75-.24-.2c8.2-9.51 14.9-20.25 22.7-30.1 9.71-13.91 19.69-27.63 29.76-41.28 3.94-4.83 6.93-10.44 11.57-14.68 16.3 27.82 32.07 55.99 48.55 83.69 2.22-.43 3.05-2.94 4.47-4.44 19.55-25.3 40.05-50.16 64.19-71.25 0-.49.01-1.46.01-1.95-16.49-27.77-32.25-55.98-48.65-83.81z"/><path fill="#FBE2BA" d="M1336.935 197.763c31.61 9.38 60.34 27.04 84.79 48.96-11 18.69-21.71 37.56-32.6 56.31-5.57 9.27-10.49 18.95-16.5 27.93 4.55 5.86 10.66 10.23 15.67 15.68 18.56 18.64 35.28 39.01 51.18 59.93.52.86 1.28 1.39 2.28 1.57 15.68-26.23 30.57-52.96 46.06-79.32 1-1.69 1.87-3.46 2.55-5.3 17.1 22.98 33.79 46.27 50.61 69.46 4.53 5.71 8.16 12.16 13.3 17.37l-.24.28c-2.2 2.39-3.64 5.33-5.22 8.13-11.48 19.88-22.93 39.77-34.43 59.63-3.31 5.52-6.23 11.28-9.83 16.63-18.13-24.16-35.48-48.9-53.37-73.23-3.21-3.89-5.68-8.49-9.27-11.97-.34.08-1.01.23-1.35.31-11.52 19.95-23.04 39.92-34.59 59.87-4.47 7.43-8.39 15.22-13.27 22.4.1 3.39 2.72 5.67 4.6 8.21 12.98 17.44 25.62 35.12 38.34 52.74 6.72 9 13.01 18.33 20.19 26.97 16.31-28.21 32.44-56.54 48.96-84.63 20.76 27.25 42.59 53.99 68.43 76.65-15.84 28.44-32.72 56.35-48.58 84.75.38 1.5 1.9 2.24 2.95 3.27 23.81 20.37 51.16 37.3 81.44 46-8.8 16.2-18.39 31.97-27.47 48.01-7.17 12.3-14.12 24.72-21.42 36.93-31.63-9.41-60.1-27.29-84.74-48.98 16.43-28.07 32.68-56.31 48.8-84.52-.38-1.48-1.81-2.23-2.77-3.24-24.73-22.2-45.59-48.22-65.91-74.39-16.11 28.38-32.58 56.56-48.88 84.83-21.6-28.34-41.54-57.91-63.23-86.19 15.01-25.82 29.86-51.74 44.81-77.6 1.57-2.72 3.51-5.32 4.13-8.46-2.86-2.23-4.69-5.39-6.92-8.17-18.75-24.11-38.58-47.6-61.57-67.79 14.4-25.49 29.25-50.72 43.79-76.14 1.73-3.23 4.29-6.19 4.66-9.98-5.25-3.31-9.57-7.84-14.62-11.42-17.23-13.29-36.22-24.43-56.61-32.1-4.29-1.37-8.43-3.47-12.91-4.05-1.8 1.32-2.77 3.38-3.85 5.26-15.1 26.44-30.56 52.67-45.54 79.18-36.44-10.74-75.62-10.39-112.49-1.95 6.13-10.87 13.51-21.02 18.82-32.35 3.96-8.28 10.45-15.12 13.62-23.82 5.33-9.74 10.93-19.37 16.81-28.79 34.78-7.42 71.42-8.75 105.98.54 2.07.44 4.17 1.47 6.35.98 1.88-2.03 2.93-4.66 4.37-7 14.89-25.8 29.78-51.6 44.69-77.39z"/><path fill="#2C2F36" d="M430.855 321.953c20.49-26.73 42.06-52.9 67.38-75.26 16.4 27.83 32.16 56.04 48.65 83.81 0 .49-.01 1.46-.01 1.95-24.14 21.09-44.64 45.95-64.19 71.25-1.42 1.5-2.25 4.01-4.47 4.44-16.48-27.7-32.25-55.87-48.55-83.69-.35-.98.81-1.72 1.19-2.5zm958.27-18.92c10.89-18.75 21.6-37.62 32.6-56.31 25.92 22.69 47.69 49.58 68.64 76.8-.68 1.84-1.55 3.61-2.55 5.3-15.49 26.36-30.38 53.09-46.06 79.32-1-.18-1.76-.71-2.28-1.57-15.9-20.92-32.62-41.29-51.18-59.93-5.01-5.45-11.12-9.82-15.67-15.68 6.01-8.98 10.93-18.66 16.5-27.93z"/><path fill="#2C2F36" d="M630.935 282.623c1.59 1.18 3.03 2.59 3.95 4.38 15.34 26.91 31.08 53.59 46.34 80.55 36.43-10.75 75.61-10.42 112.46-1.95 13.75 24.63 28.15 48.9 42.17 73.39 2.02 3.8 4.77 7.28 6.01 11.46-36.2-7.84-74.53-8.66-110.27 1.95-.52-.16-1.57-.47-2.09-.63-15.67-28.13-32.24-55.77-48.09-83.8-31.82 8.86-60.36 27.09-84.95 48.82 16.41 28.11 32.56 56.36 48.85 84.52 19.52-16.62 40.77-31.59 64.57-41.45 6.12-2.83 12.67-4.53 18.85-7.22 1.58.89 3.13 1.94 3.91 3.67 15.52 27.11 31.25 54.1 46.8 81.19 22.45-6.82 46.14-9.15 69.53-7.97 14.43.95 28.95 2.38 42.96 6.1 2.36 4.96 5.32 9.61 8.03 14.39 13.75 23.85 27.55 47.69 41.28 71.56-5.66-3.14-12.32-3.23-18.53-4.33-16.15-2.57-32.54-3.29-48.85-2.5-15.44.77-30.74 3.54-45.57 7.87-14.8-25.82-29.71-51.57-44.58-77.35-1.44-2.47-2.66-5.09-4.53-7.27-31.04 8.55-58.88 26.3-83.04 47.25-1.92 1.02-.56 3.07.16 4.42 15.86 27.22 31.4 54.63 47.35 81.81-25.88 22.99-47.97 49.8-68.93 77.25-16.47-28.18-32.61-56.55-49.03-84.75-20.99 27.68-40.68 56.32-61.54 84.1-.48.77-1.12 1.32-1.91 1.67-5.79-9.02-10.77-18.55-16.26-27.76-10.82-18.77-21.69-37.52-32.48-56.3-7.32 8.67-13.92 17.93-21.25 26.6-14.63 17.71-30.12 34.8-47.39 49.98 14.45 25.72 29.5 51.1 44.13 76.73 1.39 2.65 3.43 5.03 4.18 7.98l-.52 1.4c-22.33 19.45-47.73 35.84-75.87 45.46-2.52.72-4.95 2.11-7.62 2.05-1.47-.92-2.31-2.47-3.14-3.92-15.28-26.87-31.14-53.43-46.18-80.44-19.73 5.72-40.3 8.47-60.84 8.12-17.22-.08-34.33-2.5-51.22-5.77-5.29-8.97-10.4-18.05-15.69-27.03-11.08-19.23-22.06-38.52-33.36-57.61 2.44-.13 4.86.21 7.24.75 34.4 6.63 70.51 6.54 104.25-3.5-6.03-11.65-13.06-22.77-19.47-34.22-9.85-16.83-19.31-33.89-29.38-50.58-35.79 10.78-74.12 9.95-110.48 2.54-1.12 0-1.71-.99-2.2-1.84-16.01-27.84-32.09-55.65-48.15-83.47 14.04 2.47 28.14 4.85 42.42 5.48 22.89 1.19 46.06-1.04 68.08-7.54.42-.04 1.28-.13 1.7-.18 16.33 28.26 32.65 56.54 48.94 84.82 29.92-9.14 57.37-25.37 80.92-45.84 1.23-1.11 2.56-2.12 4.11-2.74 7.01 11.26 13.31 22.96 20.05 34.39 9.57 16.61 19.22 33.17 28.74 49.82 23.76-20.53 43.9-44.84 63.13-69.57 1.96-2.24 3.21-5.33 5.99-6.69 16.45 27.92 32.43 56.13 48.74 84.13 21-27.67 40.63-56.34 61.52-84.08.47-.75 1.09-1.32 1.85-1.73 6.73 10.45 12.51 21.52 18.88 32.21 9.98 17.29 20 34.56 29.96 51.87 8-9.61 15.35-19.76 23.46-29.29 14-16.73 28.75-32.94 45.23-47.28-16.21-28.35-32.49-56.67-49.03-84.82-23.2 20.7-43.43 44.45-62.41 69-1.91 2.42-3.53 5.13-6.01 7.02-.23-.07-.68-.2-.91-.27-16.22-27.79-32.1-55.8-48.35-83.58-21.34 28.29-41.3 57.59-62.84 85.71-1.36.1-1.61-1.53-2.28-2.35-15.56-27.29-31.43-54.4-47.04-81.66-11.94 14.88-23.46 30.13-36.3 44.27-10.15 11.2-20.6 22.29-32.12 32.05-1.37-.22-1.72-1.67-2.38-2.65-15.59-27.43-31.63-54.6-47.2-82.04 25.86-22.64 47.73-49.38 68.48-76.67l.87.75c16.5 27.65 32.22 55.8 48.52 83.59 21.32-27.86 41.04-56.94 62.23-84.87l.57-.37c.33.07 1 .22 1.33.29 16.05 27.74 32.08 55.5 48.09 83.27 9.21-11.07 17.69-22.77 27.15-33.66 12.93-15.15 26.49-29.84 41.53-42.95-9.19-16.35-18.74-32.49-28.06-48.77-6.79-11.42-13.01-23.19-20.12-34.41-.05-.99-.08-1.99-.1-2.98 3.17-2 5.91-4.57 8.8-6.93 14.43-11.68 30.04-21.98 46.82-29.96 8.83-4.46 18.31-7.36 27.43-11.09m-263.52 396.81c-17.37 11.57-36.26 21.22-56.41 26.88 4.39 8.92 9.85 17.3 14.7 25.99 11.37 19.67 22.65 39.39 34.11 59 16.53-5.01 32.39-12.16 47.16-21.13 13.38-7.95 25.56-17.7 37.54-27.58-16.08-28.36-32.61-56.47-48.79-84.77-9.31 7.35-18.33 15.12-28.31 21.61zm920.76-396.33c4.48.58 8.62 2.68 12.91 4.05 20.39 7.67 39.38 18.81 56.61 32.1 5.05 3.58 9.37 8.11 14.62 11.42-.37 3.79-2.93 6.75-4.66 9.98-14.54 25.42-29.39 50.65-43.79 76.14 22.99 20.19 42.82 43.68 61.57 67.79 2.23 2.78 4.06 5.94 6.92 8.17-.62 3.14-2.56 5.74-4.13 8.46-14.95 25.86-29.8 51.78-44.81 77.6 21.69 28.28 41.63 57.85 63.23 86.19 16.3-28.27 32.77-56.45 48.88-84.83 20.32 26.17 41.18 52.19 65.91 74.39.96 1.01 2.39 1.76 2.77 3.24-16.12 28.21-32.37 56.45-48.8 84.52 24.64 21.69 53.11 39.57 84.74 48.98 7.3-12.21 14.25-24.63 21.42-36.93 9.08-16.04 18.67-31.81 27.47-48.01-30.28-8.7-57.63-25.63-81.44-46-1.05-1.03-2.57-1.77-2.95-3.27 15.86-28.4 32.74-56.31 48.58-84.75-25.84-22.66-47.67-49.4-68.43-76.65-16.52 28.09-32.65 56.42-48.96 84.63-7.18-8.64-13.47-17.97-20.19-26.97-12.72-17.62-25.36-35.3-38.34-52.74-1.88-2.54-4.5-4.82-4.6-8.21 4.88-7.18 8.8-14.97 13.27-22.4 11.55-19.95 23.07-39.92 34.59-59.87.34-.08 1.01-.23 1.35-.31 3.59 3.48 6.06 8.08 9.27 11.97 17.89 24.33 35.24 49.07 53.37 73.23 3.6-5.35 6.52-11.11 9.83-16.63 11.5-19.86 22.95-39.75 34.43-59.63 1.58-2.8 3.02-5.74 5.22-8.13 20.78 27.31 42.67 54.07 68.55 76.75-15.68 27.65-31.74 55.08-47.59 82.62-.39.95-1.65 2.41-.4 3.26 24 21.28 51.99 38.46 82.77 47.92l.06.86c-.24 2.69-2.07 4.81-3.3 7.11-11.2 19.42-22.41 38.83-33.63 58.24-3.53 6.4-7.61 12.5-10.73 19.12 34.06 10.09 70.52 10.12 105.21 3.3 2.03-.47 4.13-.63 6.24-.55-11.32 19.33-22.55 38.71-33.59 58.2-5.31 8.7-10.2 17.65-15.42 26.41-36.75 7.55-75.61 8.71-111.77-2.42-15.01 26-30.04 51.98-45.01 78-1.41 2.22-2.34 4.92-4.6 6.45-5.94-.83-11.47-3.62-17.1-5.61-20.15-8.15-38.83-19.65-55.83-33.16-3.7-2.85-7.06-6.13-10.95-8.72-.03-1-.03-1.99.01-2.97 4.35-6.29 7.74-13.19 11.71-19.72 12.11-21.19 24.61-42.16 36.47-63.49-15.72-13.79-29.96-29.18-43.4-45.17-8.8-10.14-16.63-21.07-25.24-31.36-16.19 28.21-32.57 56.3-48.72 84.53-10.19-12.61-19.34-26.03-28.95-39.08-11.43-15.79-22.7-31.69-34.54-47.17-16.39 28.22-32.57 56.56-49.03 84.74-20.97-27.44-43.05-54.25-68.91-77.26 15.18-25.91 30.04-52.01 45.12-77.98 1.21-2.15 2.67-4.21 3.42-6.57-.03-1.27-1.47-1.84-2.18-2.69-23.92-20.45-51.34-37.82-81.89-46.23-3.98 5.47-6.84 11.67-10.4 17.43-12.91 22.39-25.86 44.76-38.71 67.19-12.26-3.51-24.8-6.16-37.51-7.27-15.7-1.38-31.53-1.12-47.2.46-9.19 1.05-18.25 2.94-27.39 4.23 16.39-28.3 32.66-56.68 49.1-84.95 36.77-7.59 75.62-8.69 111.8 2.42 15.62-27.06 31.31-54.09 46.86-81.19.8-1.65 2.31-2.7 3.78-3.71 6.94 2.94 14.24 4.94 21.08 8.16 22.49 9.77 42.94 23.78 61.39 39.83.14.35.41 1.05.55 1.4-2.53 6.14-6.61 11.58-9.71 17.47-12.87 22.43-26 44.72-38.72 67.24 25.97 22.57 47.49 49.62 68.66 76.58 16.24-28.15 32.53-56.28 48.76-84.44-18.16-24.19-37.47-47.66-59.36-68.6-2.86-3.1-6.8-5.32-8.94-9 16.03-28.28 32.4-56.38 48.72-84.5-24.61-21.7-53.1-39.6-84.74-48.93-11.12 18.92-21.97 37.99-32.98 56.97-5.06 9.01-10.55 17.79-15.33 26.95-.54.17-1.63.5-2.17.67-35.72-10.62-74.04-9.77-110.22-1.97 1.24-4.16 3.97-7.63 6-11.41 13.99-24.51 28.43-48.78 42.16-73.43 36.87-8.44 76.05-8.79 112.49 1.95 14.98-26.51 30.44-52.74 45.54-79.18 1.08-1.88 2.05-3.94 3.85-5.26z"/><path fill="#FBE2BA" d="M596.465 416.793c24.59-21.73 53.13-39.96 84.95-48.82 15.85 28.03 32.42 55.67 48.09 83.8.52.16 1.57.47 2.09.63 35.74-10.61 74.07-9.79 110.27-1.95 3.72 4.9 6.75 10.33 10.06 15.52 4.49 7.85 7.49 16.64 13.41 23.62 2.58 3.28 4.1 7.21 6.23 10.78 6.75 11.76 13.87 23.34 20.37 35.26-14.01-3.72-28.53-5.15-42.96-6.1-23.39-1.18-47.08 1.15-69.53 7.97-15.55-27.09-31.28-54.08-46.8-81.19-.78-1.73-2.33-2.78-3.91-3.67-6.18 2.69-12.73 4.39-18.85 7.22-23.8 9.86-45.05 24.83-64.57 41.45-16.29-28.16-32.44-56.41-48.85-84.52zm642.37-48.98c31.64 9.33 60.13 27.23 84.74 48.93-16.32 28.12-32.69 56.22-48.72 84.5 2.14 3.68 6.08 5.9 8.94 9 21.89 20.94 41.2 44.41 59.36 68.6-16.23 28.16-32.52 56.29-48.76 84.44-21.17-26.96-42.69-54.01-68.66-76.58 12.72-22.52 25.85-44.81 38.72-67.24 3.1-5.89 7.18-11.33 9.71-17.47-.14-.35-.41-1.05-.55-1.4-18.45-16.05-38.9-30.06-61.39-39.83-6.84-3.22-14.14-5.22-21.08-8.16-1.47 1.01-2.98 2.06-3.78 3.71-15.55 27.1-31.24 54.13-46.86 81.19-36.18-11.11-75.03-10.01-111.8-2.42 3.59-6.26 6.78-12.75 10.49-18.94 4.55-8.37 10.35-16.02 14.42-24.66 3.1-6.67 7.84-12.42 10.95-19.09 1.79-3.93 4.95-6.99 6.98-10.77 2.18-3.73 3.58-7.99 6.59-11.19 36.18-7.8 74.5-8.65 110.22 1.97.54-.17 1.63-.5 2.17-.67 4.78-9.16 10.27-17.94 15.33-26.95 11.01-18.98 21.86-38.05 32.98-56.97z"/><path fill="#FBE1BA" d="M211.045 536.863c32.23-9.2 61.49-27.22 86.35-49.48 15.57 27.44 31.61 54.61 47.2 82.04.66.98 1.01 2.43 2.38 2.65 11.52-9.76 21.97-20.85 32.12-32.05 12.84-14.14 24.36-29.39 36.3-44.27 15.61 27.26 31.48 54.37 47.04 81.66.67.82.92 2.45 2.28 2.35 21.54-28.12 41.5-57.42 62.84-85.71 16.25 27.78 32.13 55.79 48.35 83.58.23.07.68.2.91.27 2.48-1.89 4.1-4.6 6.01-7.02 18.98-24.55 39.21-48.3 62.41-69 16.54 28.15 32.82 56.47 49.03 84.82-16.48 14.34-31.23 30.55-45.23 47.28-8.11 9.53-15.46 19.68-23.46 29.29-9.96-17.31-19.98-34.58-29.96-51.87-6.37-10.69-12.15-21.76-18.88-32.21-.76.41-1.38.98-1.85 1.73-20.89 27.74-40.52 56.41-61.52 84.08-16.31-28-32.29-56.21-48.74-84.13-2.78 1.36-4.03 4.45-5.99 6.69-19.23 24.73-39.37 49.04-63.13 69.57-9.52-16.65-19.17-33.21-28.74-49.82-6.74-11.43-13.04-23.13-20.05-34.39-1.55.62-2.88 1.63-4.11 2.74-23.55 20.47-51 36.7-80.92 45.84a71603.81 71603.81 0 0 0-48.94-84.82c-.42.05-1.28.14-1.7.18z"/><path fill="#FBE2BA" d="M1622.585 487.383c24.9 22.24 54.08 40.23 86.32 49.5-.42-.05-1.26-.14-1.67-.19-15.58 26.95-31.07 53.96-46.72 80.86-.61 1.33-2.12 2.58-1.39 4.16 35.81 10.93 74.43 9.95 110.81 2.23-3.89 8.5-9.34 16.18-13.65 24.47-10.63 18.07-20.8 36.43-31.53 54.45-1.26 2.03-2.27 4.2-3.18 6.4h-.36c-2.11-.08-4.21.08-6.24.55-34.69 6.82-71.15 6.79-105.21-3.3 3.12-6.62 7.2-12.72 10.73-19.12 11.22-19.41 22.43-38.82 33.63-58.24 1.23-2.3 3.06-4.42 3.3-7.11l-.06-.86c-30.78-9.46-58.77-26.64-82.77-47.92-1.25-.85.01-2.31.4-3.26 15.85-27.54 31.91-54.97 47.59-82.62z"/><path fill="#2C2F36" d="M1707.235 536.693c.41.05 1.25.14 1.67.19 25.2 7.34 51.83 9.32 77.92 6.78 10.98-.75 21.77-3.02 32.63-4.75-15.56 26.94-31.14 53.86-46.64 80.84-.98 1.37-1.43 3.25-2.88 4.19-36.38 7.72-75 8.7-110.81-2.23-.73-1.58.78-2.83 1.39-4.16 15.65-26.9 31.14-53.91 46.72-80.86z"/><path fill="#FBE2BA" d="M696.145 585.253c24.16-20.95 52-38.7 83.04-47.25 1.87 2.18 3.09 4.8 4.53 7.27 14.87 25.78 29.78 51.53 44.58 77.35-31.62 9.3-60.06 27.18-84.64 48.86-15.95-27.18-31.49-54.59-47.35-81.81-.72-1.35-2.08-3.4-.16-4.42zm434.27-29.83c3.56-5.76 6.42-11.96 10.4-17.43 30.55 8.41 57.97 25.78 81.89 46.23.71.85 2.15 1.42 2.18 2.69-.75 2.36-2.21 4.42-3.42 6.57-15.08 25.97-29.94 52.07-45.12 77.98-24.59-21.66-53.05-39.52-84.64-48.85 12.85-22.43 25.8-44.8 38.71-67.19z"/><path fill="#E2925F" d="M828.295 622.623c14.83-4.33 30.13-7.1 45.57-7.87 16.31 28.94 33.06 57.64 49.66 86.41 1.38 2.61 3.37 4.95 4.18 7.83-.38 2.21-1.75 4.06-2.82 5.98-2.77 4.38-5.33 8.88-7.88 13.39-11.35-19.17-22.23-38.61-33.53-57.81-3.36-5.71-6.39-11.61-10.1-17.1-30.99 1.77-61.53 10.92-88.31 26.63-18.05 10.3-34.4 23.34-49.47 37.6-4.22 3.75-8.38 7.58-12.11 11.82-57.32 59.56-97.14 133.21-152.89 194.09-18.89 20.26-39.42 39.34-63.14 53.85-23.23 14.47-49.29 24.6-76.43 28.54-27.83 4.19-56.32 2.34-83.77-3.44-1.81-.29-2.53-2.19-3.47-3.5-35.99-62.61-72.18-125.1-108.27-187.66-3.27-5.45-6.17-11.12-9.64-16.46 1.85-9.4 3.65-18.84 6.22-28.07 5.29 8.98 10.4 18.06 15.69 27.03 16.26 28.24 32.53 56.46 48.88 84.64 15.82 27.68 31.87 55.23 47.75 82.87a8.16 8.16 0 0 0 1.91 2.39c36.68 7.64 75.46 8.57 111.59-2.43 31.6-9.41 60.26-27.13 84.72-49.02 26.05-22.82 48.24-49.67 68.9-77.35 21.69-28.28 41.76-57.77 63.19-86.25 20.96-27.45 43.05-54.26 68.93-77.25 24.58-21.68 53.02-39.56 84.64-48.86z"/><path fill="#416877" d="M873.865 614.753c16.31-.79 32.7-.07 48.85 2.5 6.21 1.1 12.87 1.19 18.53 4.33 5.87 10.05 11.66 20.16 17.44 30.26.27.95 2.07 1.45 2.36.22 6.31-10.6 12.31-21.39 18.56-32.03 9.14-1.29 18.2-3.18 27.39-4.23 15.67-1.58 31.5-1.84 47.2-.46-2.76-.15-5.52-.11-8.26-.06-16.64 29.52-33.91 58.67-50.7 88.1-1.18 2.35-4.07 4.94-2.29 7.7 3.31 5.76 6.62 11.52 10.01 17.24 31.87 55.38 63.86 110.7 95.82 166.03.72 1.29.81 2.98.03 4.28-2.63 4.36-6.46 7.87-10.62 10.74-5.62 3.72-11.06 7.83-17.35 10.41-5.78 2.4-12.07 5.18-18.45 3.68-3.45-3.69-5.19-8.63-7.94-12.82-27.99-48.6-56.18-97.1-84.03-145.79-2.05 1.66-3.15 4.1-4.35 6.37-29.01 50.03-57.77 100.2-86.74 150.24-1.72 3.54-6.3 2.3-9.42 2.06-9.5-2.31-18.23-7.1-26.22-12.63-4.74-3.43-9.49-7.18-12.51-12.28-.78-1.3-.71-2.98.02-4.26 31.94-55.32 63.94-110.62 95.81-165.99 2.55-4.51 5.11-9.01 7.88-13.39 1.07-1.92 2.44-3.77 2.82-5.98-.81-2.88-2.8-5.22-4.18-7.83-16.6-28.77-33.35-57.47-49.66-86.41z"/><path fill="#E2925F" d="M1054.195 615.343c12.71 1.11 25.25 3.76 37.51 7.27 31.59 9.33 60.05 27.19 84.64 48.85 25.86 23.01 47.94 49.82 68.91 77.26 21.42 28.5 41.6 57.91 63.2 86.28 20.71 27.63 42.85 54.5 68.87 77.33 24.51 21.86 53.15 39.62 84.76 49.04 36.32 10.88 75.33 10.28 112.14 2.18 16.47-28.26 32.79-56.62 49.06-84.99 16.37-28.19 32.68-56.42 48.92-84.69 5.22-8.76 10.11-17.71 15.42-26.41 1.83 3.57 2.2 7.63 3.17 11.48 1.14 5.42 2.52 10.81 3.27 16.32-11.13 17.97-21.15 36.62-31.94 54.8-28.05 48.67-56.2 97.27-84.2 145.96-1.66 2.42-2.64 6.17-5.96 6.69-39.7 8.37-82 7.95-120.37-6.18-32.32-11.65-60.9-31.92-85.37-55.77-25.96-25.01-48.08-53.62-69.41-82.57-33.98-46.32-66.03-94.52-106.74-135.36-10.39-9.64-20.85-19.23-32.24-27.68-32.01-24.08-70.88-39.88-111.1-41.49-3.01 2.92-4.36 7.05-6.57 10.54-12.47 21.33-24.61 42.86-37.21 64.12-3.39-5.72-6.7-11.48-10.01-17.24-1.78-2.76 1.11-5.35 2.29-7.7 16.79-29.43 34.06-58.58 50.7-88.1 2.74-.05 5.5-.09 8.26.06z"/><path fill="#FBE1BA" d="M150.895 624.233c36.36 7.41 74.69 8.24 110.48-2.54 10.07 16.69 19.53 33.75 29.38 50.58 6.41 11.45 13.44 22.57 19.47 34.22-33.74 10.04-69.85 10.13-104.25 3.5-2.38-.54-4.8-.88-7.24-.75h-.26c-4.13-8.52-9.31-16.46-13.92-24.72-9.79-16.95-19.61-33.89-29.34-50.87-1.66-3.04-3.95-5.86-4.32-9.42z"/><path fill="#FECF67" d="M785.065 680.083c26.78-15.71 57.32-24.86 88.31-26.63 3.71 5.49 6.74 11.39 10.1 17.1 11.3 19.2 22.18 38.64 33.53 57.81-31.87 55.37-63.87 110.67-95.81 165.99-.73 1.28-.8 2.96-.02 4.26 3.02 5.1 7.77 8.85 12.51 12.28-3.67 7.44-8.3 14.36-12.14 21.7-2.06 3.46 1.12 7.03 3.28 9.59 6.32 6.26 13.99 11.03 21.86 15.11 5.76 2.65 11.85 5.25 18.29 5.38 1.82.22 3.34-.98 4.22-2.46 18.62-32.1 37.15-64.26 55.68-96.4 11.8-20.06 22.98-40.48 35.11-60.33 8.74 13.92 16.5 28.44 24.89 42.58 20.76 35.97 41.53 71.94 62.27 107.92 1.73 2.82 2.98 6.13 5.61 8.26 2.3.89 4.89.37 7.24-.09 11.27-2.62 21.36-8.73 30.44-15.72 3.73-3.06 7.87-6.53 8.85-11.5-.33-1.58-1.12-2.99-1.87-4.37-3.63-6.22-7.22-12.46-10.85-18.67.51-.86 1.06-1.7 1.62-2.52 4.16-2.87 7.99-6.38 10.62-10.74.78-1.3.69-2.99-.03-4.28-31.96-55.33-63.95-110.65-95.82-166.03 12.6-21.26 24.74-42.79 37.21-64.12 2.21-3.49 3.56-7.62 6.57-10.54 40.22 1.61 79.09 17.41 111.1 41.49 11.39 8.45 21.85 18.04 32.24 27.68 40.71 40.84 72.76 89.04 106.74 135.36 21.33 28.95 43.45 57.56 69.41 82.57 24.47 23.85 53.05 44.12 85.37 55.77 38.37 14.13 80.67 14.55 120.37 6.18 3.32-.52 4.3-4.27 5.96-6.69 28-48.69 56.15-97.29 84.2-145.96 10.79-18.18 20.81-36.83 31.94-54.8l.15-.23c4.46 23.5 8.35 47.15 10.64 70.97 1.31 10.3 1.43 20.69 2.58 31-.06 8.67 1.19 17.28.94 25.96 1.04 47.52-2.05 95.1-9.74 142-13.9 83.23-41.82 164.11-82.64 237.98-9.96 17.84-20.34 35.5-31.96 52.31-6.06-19.6-12.76-39-20.2-58.11-6.08-15.01-15.8-28.39-27.67-39.35-11.96-11.16-26.01-19.79-40.39-27.47 2.37-4.61 4.46-9.36 6.94-13.92 24.71-.27 49.44.32 74.14-.3l1.18-.67c10.15-2.2 20.5-6.91 26.23-15.99 5.21-7.78 3.68-17.59 3.94-26.43-.5-6.49.49-13.54-3.03-19.36-5.08-9.23-14.99-14.85-25.05-16.98-9.28-2.26-18.78-.26-28.13.22-17.19 1.25-34.35 2.77-51.56 3.77-10.58 1-21.24 5.4-28.11 13.74-4.12 4.84-6.01 11.26-5.78 17.56.25 9.34-1.1 19.14 2.87 27.94 1.37 6.16-1.43 12.05-2.1 18.1-3.27-1.16-6.73-1.88-9.79-3.52-2.94-4.05-4.47-8.95-6.73-13.38-16.75-35.73-34.48-71.09-55.32-104.64-17.35-27.44-37.1-53.88-62.25-74.67-15.33-12.62-32.61-22.84-51.11-30.04-36.27-14.23-75.56-17.89-114.15-19.83-26.64-.93-53.29-1.47-79.95-1.22-64.01.62-128.02 1.28-192.03.64-58.32-.29-116.73-2.12-174.98 1.91-40.06 3.11-81.12 9.88-116.4 30.21-29.15 16.44-52.6 41.22-72.08 68.1-20.72 28.98-38.03 60.25-53.96 92.08-9.94 19.92-19.66 39.98-28.52 60.4-2.12 3.12-6.39 3.67-9.44 5.62-2.28-5.9-5.08-12.4-2.88-18.75 1.41-5.19.94-10.62 1.34-15.92.27-6.94.89-14.35-2.42-20.73-4.08-7.8-11.66-13.28-19.86-16.12-9.55-3.61-19.89-2.33-29.83-3.47-16.63-1.82-33.35-2.54-50-4.1-12.1-.08-24.9 4-33.03 13.34-4.39 4.89-6.61 11.5-6.29 18.04.22 7.66-.33 15.34.28 22.98 1.64 11.77 12.15 20.2 22.93 23.61 8.39 3.15 17.46 2.02 26.22 2.22 19.84.13 39.68-.26 59.51.21 2.19 4.81 4.56 9.57 7.66 13.88-11.66 8.59-22.6 18.36-31.17 30.1-6.05 8.19-10.7 17.35-14.18 26.9a811.228 811.228 0 0 0-22.64 68.07c-4.34-4.53-7.3-10.2-10.92-15.3-48.35-72.83-83.69-154.29-103.8-239.37-3.2-13.34-5.8-26.8-8.53-40.23-2.96-19.28-6.13-38.55-7.94-57.97-3.52-35.55-4.32-71.36-3.13-107.07 2.04-38.58 5.89-77.22 13.95-115.06 3.47 5.34 6.37 11.01 9.64 16.46 36.09 62.56 72.28 125.05 108.27 187.66.94 1.31 1.66 3.21 3.47 3.5 27.45 5.78 55.94 7.63 83.77 3.44 27.14-3.94 53.2-14.07 76.43-28.54 23.72-14.51 44.25-33.59 63.14-53.85 55.75-60.88 95.57-134.53 152.89-194.09 3.73-4.24 7.89-8.07 12.11-11.82 15.07-14.26 31.42-27.3 49.47-37.6z"/><path fill="#FBE1BA" d="M367.415 679.433c9.98-6.49 19-14.26 28.31-21.61 16.18 28.3 32.71 56.41 48.79 84.77-11.98 9.88-24.16 19.63-37.54 27.58-14.77 8.97-30.63 16.12-47.16 21.13-11.46-19.61-22.74-39.33-34.11-59-4.85-8.69-10.31-17.07-14.7-25.99 20.15-5.66 39.04-15.31 56.41-26.88z"/><path fill="#FBE1BA" d="M564.155 748.083c20.86-27.78 40.55-56.42 61.54-84.1 16.42 28.2 32.56 56.57 49.03 84.75-21.43 28.48-41.5 57.97-63.19 86.25-15.76-27.12-31.45-54.27-47.06-81.47-.7-.88-.95-2.45-2.3-2.45-2.99 2.44-4.91 5.88-7.34 8.83-18.47 23.69-38.03 46.74-60.56 66.7l-.12 1.8c16.2 27.96 32.27 55.99 48.48 83.94-24.46 21.89-53.12 39.61-84.72 49.02-15.35-26.7-30.81-53.34-46.17-80.04-1.1-1.61-1.62-3.9-3.6-4.65-4.12.53-8.02 2.12-12.1 2.89-32.65 7.46-66.77 5.85-99.38-1.03-16.35-28.18-32.62-56.4-48.88-84.64 16.89 3.27 34 5.69 51.22 5.77 20.54.35 41.11-2.4 60.84-8.12 15.04 27.01 30.9 53.57 46.18 80.44.83 1.45 1.67 3 3.14 3.92 2.67.06 5.1-1.33 7.62-2.05 28.14-9.62 53.54-26.01 75.87-45.46l.52-1.4c-.75-2.95-2.79-5.33-4.18-7.98-14.63-25.63-29.68-51.01-44.13-76.73 17.27-15.18 32.76-32.27 47.39-49.98 7.33-8.67 13.93-17.93 21.25-26.6 10.79 18.78 21.66 37.53 32.48 56.3 5.49 9.21 10.47 18.74 16.26 27.76.79-.35 1.43-.9 1.91-1.67z"/><path fill="#FBE2BA" d="M1294.285 663.983c11.84 15.48 23.11 31.38 34.54 47.17 9.61 13.05 18.76 26.47 28.95 39.08 16.15-28.23 32.53-56.32 48.72-84.53 8.61 10.29 16.44 21.22 25.24 31.36 13.44 15.99 27.68 31.38 43.4 45.17-11.86 21.33-24.36 42.3-36.47 63.49-3.97 6.53-7.36 13.43-11.71 19.72-.04.98-.04 1.97-.01 2.97 3.89 2.59 7.25 5.87 10.95 8.72 17 13.51 35.68 25.01 55.83 33.16 5.63 1.99 11.16 4.78 17.1 5.61 2.26-1.53 3.19-4.23 4.6-6.45 14.97-26.02 30-52 45.01-78 36.16 11.13 75.02 9.97 111.77 2.42-16.24 28.27-32.55 56.5-48.92 84.69-26.36 5.41-53.56 7.76-80.34 4.29-10.57-1.09-20.84-3.86-31.14-6.19-.97.42-1.65 1.11-2.07 2.08-15.83 27.58-31.82 55.05-47.65 82.63-31.61-9.42-60.25-27.18-84.76-49.04 16.36-27.88 32.11-56.12 48.68-83.88-.05-.48-.14-1.45-.19-1.93-25.86-22.51-47.38-49.42-68.3-76.44-16.31 28.33-32.64 56.65-49.06 84.92-21.6-28.37-41.78-57.78-63.2-86.28 16.46-28.18 32.64-56.52 49.03-84.74z"/><path fill="#2C2F36" d="M562.175 751.063c1.35 0 1.6 1.57 2.3 2.45 15.61 27.2 31.3 54.35 47.06 81.47-20.66 27.68-42.85 54.53-68.9 77.35-16.21-27.95-32.28-55.98-48.48-83.94l.12-1.8c22.53-19.96 42.09-43.01 60.56-66.7 2.43-2.95 4.35-6.39 7.34-8.83zm795.34-.98c20.92 27.02 42.44 53.93 68.3 76.44.05.48.14 1.45.19 1.93-16.57 27.76-32.32 56-48.68 83.88-26.02-22.83-48.16-49.7-68.87-77.33 16.42-28.27 32.75-56.59 49.06-84.92z"/><path fill="#E2925F" d="M956.065 771.223c1.2-2.27 2.3-4.71 4.35-6.37 27.85 48.69 56.04 97.19 84.03 145.79 2.75 4.19 4.49 9.13 7.94 12.82 6.38 1.5 12.67-1.28 18.45-3.68 6.29-2.58 11.73-6.69 17.35-10.41-.56.82-1.11 1.66-1.62 2.52 3.63 6.21 7.22 12.45 10.85 18.67.75 1.38 1.54 2.79 1.87 4.37-.98 4.97-5.12 8.44-8.85 11.5-9.08 6.99-19.17 13.1-30.44 15.72-2.35.46-4.94.98-7.24.09-2.63-2.13-3.88-5.44-5.61-8.26-20.74-35.98-41.51-71.95-62.27-107.92-8.39-14.14-16.15-28.66-24.89-42.58-12.13 19.85-23.31 40.27-35.11 60.33-18.53 32.14-37.06 64.3-55.68 96.4-.88 1.48-2.4 2.68-4.22 2.46-6.44-.13-12.53-2.73-18.29-5.38-7.87-4.08-15.54-8.85-21.86-15.11-2.16-2.56-5.34-6.13-3.28-9.59 3.84-7.34 8.47-14.26 12.14-21.7 7.99 5.53 16.72 10.32 26.22 12.63 3.12.24 7.7 1.48 9.42-2.06 28.97-50.04 57.73-100.21 86.74-150.24z"/><path fill="#2C2F36" d="M396.045 879.553c4.08-.77 7.98-2.36 12.1-2.89 1.98.75 2.5 3.04 3.6 4.65 15.36 26.7 30.82 53.34 46.17 80.04-36.13 11-74.91 10.07-111.59 2.43a8.16 8.16 0 0 1-1.91-2.39c-15.88-27.64-31.93-55.19-47.75-82.87 32.61 6.88 66.73 8.49 99.38 1.03zm1113.69-.81c.42-.97 1.1-1.66 2.07-2.08 10.3 2.33 20.57 5.1 31.14 6.19 26.78 3.47 53.98 1.12 80.34-4.29-16.27 28.37-32.59 56.73-49.06 84.99-36.81 8.1-75.82 8.7-112.14-2.18 15.83-27.58 31.82-55.05 47.65-82.63z"/><path fill="#E3705E" d="M721.005 973.253c58.25-4.03 116.66-2.2 174.98-1.91 64.01.64 128.02-.02 192.03-.64 26.66-.25 53.31.29 79.95 1.22 38.59 1.94 77.88 5.6 114.15 19.83 18.5 7.2 35.78 17.42 51.11 30.04 25.15 20.79 44.9 47.23 62.25 74.67 20.84 33.55 38.57 68.91 55.32 104.64 2.26 4.43 3.79 9.33 6.73 13.38 3.06 1.64 6.52 2.36 9.79 3.52 5.64 1.67 10.69 4.83 16.26 6.7 4.23 1.49 8.27 3.46 12.2 5.62 14.38 7.68 28.43 16.31 40.39 27.47 11.87 10.96 21.59 24.34 27.67 39.35 7.44 19.11 14.14 38.51 20.2 58.11 12.58 42.69 21.95 86.97 20.37 131.7-.85 21.38-4.48 42.78-12.09 62.83-9.1-.48-18.22-1.83-27.33-.77-6.1.73-12.31.16-18.33 1.52-12.69-.49-25.1 2.68-37.71 3.36-12.22 1.31-24.36 3.15-36.53 4.81-1.45-4.45-.67-9.18-1.42-13.73-.82-9.39-2.37-18.74-4.99-27.79-2.2-6.46-5.23-13.46-11.46-16.94-4.57-1.81-10.2-.96-13.95 2.25-5.62 4.76-10.59 10.32-14.31 16.7-.61.9-.74 2.01-.83 3.09-9.15 14.48-13.77 31.14-19.86 47-9.3-.22-18.35 2.13-27.54 3.12-49.24 7.28-98.56 14.01-148.03 19.58-4.81.55-9.69.38-14.46 1.29-12.66 2.08-25.5 2.62-38.21 4.23-33.06 2.87-66.13 5.74-99.27 7.23-6.34.87-12.73.7-19.09.96-14.32 1.02-28.68.91-43.02.77 7.99.45 15.98.94 23.98 1.01-28.99-.1-57.99.39-86.99.23-16.33-.23-32.69.25-48.98-1.1-13.69.03-27.34-.96-41.01-1.27-12.64-1.32-25.38-1.15-38.01-2.47-71.93-4.7-143.58-13-214.99-22.8-11.25-1.31-22.39-3.3-33.57-5.05-11.83-1.11-23.55-3.13-35.26-5.07-3.22-.45-2.62-4.49-3.83-6.74-3.53-7.78-4.92-16.34-8.75-24.01-5.49-11.03-10.26-22.8-18.95-31.79-3.83-4.27-8.71-7.97-14.55-8.68-7.74.31-12.74 7.5-15.06 14.16-1.25 5.54-2.72 11.04-4.01 16.59-2.55 9.91-2.32 20.21-2.66 30.36-17.85-1.44-35.5-4.86-53.34-6.6-25.73-3.53-51.77-4.71-77.73-3.46-6.88-17.82-10.4-36.78-11.76-55.78-.13-8.35-1.24-16.69-.37-25.03.72-33.57 7.55-66.67 16.11-99.04 6.53-23.01 14.1-45.72 22.64-68.07 3.48-9.55 8.13-18.71 14.18-26.9 8.57-11.74 19.51-21.51 31.17-30.1 8.25-5.95 17.15-10.91 26.37-15.19 3.05-1.95 7.32-2.5 9.44-5.62 8.86-20.42 18.58-40.48 28.52-60.4 15.93-31.83 33.24-63.1 53.96-92.08 19.48-26.88 42.93-51.66 72.08-68.1 35.28-20.33 76.34-27.1 116.4-30.21m28.01 15.19c.82.26 2.46.77 3.28 1.02l-.3-.01c-11.67-.1-23.38.04-34.98 1.4-5.33 1.1-10.82.44-16.13 1.63-5.22 1.25-10.66 1.05-15.84 2.47-3.77.97-7.99.44-11.34 2.71-4.72.06-9.07 2.21-13.72 2.76-20.21 5.7-40.29 13.46-56.98 26.51-22.14 16.99-38.14 40.38-51.79 64.43-20.75 37.33-38.65 76.17-56.08 115.15-.19-.09-.59-.28-.78-.38-.03 1.22-.05 2.45-.07 3.7 25.14-4.34 50.49-7.48 75.86-9.83 3.85-1.19 7.82-1.71 11.84-1.85 12.32-1.41 24.66-2.66 36.99-3.95 5.22-.7 10.53-.47 15.7-1.62 6.11-.17 12.18-.93 18.29-1.32 10.07-1.6 20.34-1.14 30.4-2.77 7.57.01 15.06-1.17 22.64-1.08 5.28-.97 10.62-1 15.96-1.25 6.97-1.12 14.08-.07 21.03-1.31 4.96-.83 10.02-.15 15-.78 8.28-1.02 16.68.1 24.92-1.34 7.07-.6 14.2-.07 21.28-.53 11.34-1.41 22.86.18 34.17-1.6 12.21-.25 24.44-.16 36.65-.37 7.62-.91 15.29-.4 22.94-.61 42.65-.22 85.3-.1 127.95.1 4.68.3 9.36.88 14.07.33 5.76.19 11.54.63 17.31.31-5.56 1.78-11.48.45-17.19 1.18 8.67.57 17.4-.6 26.01.83 14.28.47 28.59-.13 42.87.47 6.45 1.22 13.06.18 19.5 1.47 11.13.75 22.37-.51 33.45 1.09 6.7.32 13.41.3 20.12.75 3.44.05 7.03.73 10.35-.58 8.82 1.41 17.84.14 26.63 1.78 4.3.33 8.66.02 12.96.65 6.62.85 13.38-.15 19.95 1.31 10.01.59 20.06.82 30.02 2.11 9.35.38 18.71.79 27.98 2.05 8.59.38 17.2.82 25.72 2 7.43.44 14.89.77 22.25 1.96 12.53.45 24.9 2.51 37.42 3.12 3.26.33 6.34 1.87 9.69 1.68 2.84-.07 5.69.27 8.36 1.32.14-1.08.3-2.14.49-3.18l-.81.05c-1.98-6.9-5.87-13.01-8.59-19.6-9.05-20.12-18.85-39.9-28.52-59.7-8.12-15.68-16.31-31.33-25.7-46.29-13.39-20.68-29.2-40.58-50.37-53.77-6.16-3.67-12.18-7.93-19.16-9.87-.45-.32-1.33-.94-1.77-1.25-26.23-11.14-54.67-15.93-82.89-18.41-8.76.26-17.31-1.8-26.04-1.92-70.06-.96-140.13-.15-210.18-.14-4.35.17-8.77-.49-13.05.49.26-.41.78-1.24 1.04-1.65-10.61.18-21.21-.21-31.82-.05-6.01.18-12.01-.81-18.01-.1-14 .03-28.01.05-42-.51-25 .27-50.01-.02-75.01.13-10.67-.16-21.31.73-31.97.66m110.31 212.18c-5.43.45-10.89.33-16.32.59-12.94 1.73-26.08-.17-39 1.67-5.45.5-10.95-.22-16.37.69-6.83 1.18-13.83-.2-20.63 1.26-12.67 1.04-25.34 2.02-37.98 3.17-6.43-.33-12.72 1.27-19.1 1.71-10.4.54-20.75 1.54-31.07 2.93-10.93.59-21.64 3.06-32.56 3.76-10.41 2.07-21.09 2.58-31.39 5.27-10.06 2.1-20.17 4.42-29.59 8.63-3.93 1.79-8.53 4.55-8.86 9.35 1.33 4.13 4.75 7.41 8.48 9.52 5.91 3.22 11.94 6.22 18.15 8.82 11.19 6.24 22.67 12.14 32.8 20.08 4.22 2.32 6.73 6.57 10.36 9.62 4.77 4.01 6.72 10.31 7.57 16.29-.57 5.88-3.38 11.28-7.07 15.82-1.24 2.28-4.06 5.6-1.62 7.99 3.95 2.94 9.08 3.44 13.81 4.19 13.34 2.19 27.06.77 40.08-2.64 4.52-1.06 9.22-1.22 13.65-2.68 7.69-2.52 15.96-1.97 23.7-4.26 10.22-.62 20.34-2.72 30.61-2.54 26.58-2.55 53.35-1.78 80.01-1.63 6.31 1.16 12.72.47 19.09.79 5.99-.07 11.89 1.34 17.9.96 8.36-.5 16.59 1.37 24.94 1.13 6.98 1.39 14.14.21 21.12 1.55 3.6.63 7.27.14 10.89.59 9.28 1.54 18.71.42 28.05.67 5.05.28 9.96-1.39 15.01-1.04 4.36.28 8.66-.61 13-.89 8.34-.12 16.7.02 25.04-.23 7.29-1.22 14.68-.74 22.03-.87 27.32-.08 54.64-.16 81.96.06 6.03-.4 11.94 1.4 17.98.97 5.04-.34 9.97 1.12 15.01.97 5.04-.2 10 .89 15.01 1.26 13.37 1.62 26.78 3.03 39.96 5.79 11.92 1.56 24.01 4.34 36.04 2.23 5.06-.34 10.16-.53 15.07-1.96 3.67-1.11 8.08-1.3 10.9-4.15 3.97-7.33-5.04-14.86-1.18-22.22 2.74-3.59 4.08-8.53 8.35-10.68 4.16-2.43 8.08-5.24 12.23-7.68 6.5-3.58 13.72-5.51 20.34-8.84 8.64-3.24 17.28-6.52 26.24-8.79 11.53-3.66 23.87-7.4 32.32-16.58 2.31-2.03 1.77-5.47 1.58-8.19-2.32-4.28-6.6-7.09-10.86-9.2-6.5-3.82-13.95-5.38-20.94-8.01-23.28-6.23-47.22-9.53-71.08-12.7-11.05-.41-21.96-2.51-32.99-3.13-6.37.28-12.65-1.04-19-1.03-4.03-.1-7.98-1.11-12.01-.97-5.36.25-10.62-1.04-15.96-.96-6.07.25-12.02-1.45-18.1-1.01-6.34.41-12.56-1.19-18.89-.99-4.68.07-9.37-.13-14-.82-7.45-.58-14.97.26-22.39-.81-5.19-.75-10.45-.04-15.65-.61-15.53-1.39-31.16-.18-46.67-1.58-6.69-.66-13.43.17-20.09-.74-5.41-.66-10.87-.27-16.29-.44-40.66-.21-81.31-.11-121.97-.09-13.22.28-26.45-.24-39.65.63m-394.3 101.59c-4.52 1.19-8.68 3.39-13.19 4.61l.9-1.47c-12.39 2.96-23.58 9.93-33.22 18.12-14.12 12.04-23.89 28.85-28.06 46.88-4.75 22.6-1.2 47.19 11.48 66.69 8.45 13.63 20.75 24.68 35.03 31.91 17.75 8.98 38.56 11.54 58.03 7.57a34.96 34.96 0 0 0-3.04-.9c5.07-1.11 10.37-.55 15.36-2.14 33.53-7.8 61.1-37.05 66.15-71.22 3.43-17.71.24-36.26-7.14-52.58-9.62-19.68-26.41-36.06-46.95-43.98-17.43-7.1-37.17-8.32-55.35-3.49m942.36 4.11c-7.08 3.74-14.4 7.28-20.58 12.45-5.81 5.53-12.08 10.78-16.44 17.61-14.05 19.57-19.78 45.1-14.67 68.74 1.91 8.89 4.62 17.82 9.53 25.56 10.39 19.22 28.37 34.17 49.21 40.78 6.91 2.73 14.37 2.99 21.62 4.16-.57.24-1.73.71-2.31.95 22.85 4.6 47.53.19 66.9-12.9 16.12-10.38 28.22-26.43 34.75-44.38 6.47-18.82 6.6-39.78-.03-58.58-6.15-18.44-19.18-34.13-35.2-44.92-8.03-4.66-16.39-9.42-25.63-11.03l.87 1.05c-2.54-.77-5.03-1.63-7.48-2.59-19.71-6.29-41.51-4.76-60.54 3.1m-659.43 44.96c-20.35 1.82-40.56 8.55-56.91 21.01-6.96 6.02-12.97 13.27-17.13 21.49-3.1 3.24-4.52 7.65-6.5 11.6-7.21 18.53-10.94 38.82-8.38 58.66 2.27 17.69 11.76 34.14 25.68 45.22 16.86 13.5 37.5 21.25 58.15 26.86 22.64 5.99 45.87 9.39 69.12 11.97 47.84 4.94 95.97 6.33 144.04 6.69 26.67-.29 53.37.51 80.01-.99 33.83-1.26 67.69-3.88 101.02-10.02 19.06-3.7 38.02-8.4 55.99-15.89 18.16-7.29 35.26-17.76 48.8-32.01 2.23-2.46 4.96-4.64 6.2-7.82 13-14.58 21.41-32.93 25.42-51.98 2.61-12 4-24.54 1.88-36.73-1.56-6.83-3.85-13.75-8.36-19.24-6.73-7.62-15.4-13.55-25.08-16.74-9.98-3.8-20.65-5-31.01-7.25-40.2-4.07-80.72-2.55-121.09-2.46-11.28-.2-22.52.78-33.79.63-26.68.2-53.35.14-80.03-.01-13.98-.94-28.02-.49-42.01-1.07-10.95-1.22-22.01-.28-32.96-1.46-13.7 0-27.32-1.54-41.03-1.48-11.64-1.1-23.38-.24-35-1.54-14.68-.3-29.36-.21-44.05-.13-10.99.94-22.04 1.12-32.98 2.69m-175.28 109.39c-5.64 6.27-7.28 15.05-6.94 23.26-.71 6.24 1.32 12.54 4.43 17.9 7.05 11.72 20.58 18.22 33.9 19.31 8.99 1 18.34-1.94 24.99-8.11 8.22-7.57 13.11-18.23 15.16-29.09.5-2.75 1.22-5.62.31-8.35 1.23-8.56.38-18.53-6.49-24.63-7.41-6.46-17.82-6.19-27.05-6.04-14.16-.72-29.41 4.25-38.31 15.75m710.47-8.43c-6.27 5.55-6.52 14.71-5.56 22.42-1.09 6.41.94 12.89 2.92 18.94 3.39 8.96 8.83 17.55 17.03 22.82 6.24 4.18 14.05 5.53 21.44 4.66 11.82-1.18 23.6-6.61 30.92-16.17 4.45-5.92 7.37-13.39 6.4-20.89 0-4.92.23-10.08-1.71-14.71-2.94-7.37-8.41-13.71-15.36-17.55-8.63-5.52-19.12-7.36-29.23-6.86-9.27-.23-20.09-.01-26.85 7.34z"/><path fill="#A7939C" d="M749.015 988.443c10.66.07 21.3-.82 31.97-.66 25-.15 50.01.14 75.01-.13 13.99.56 28 .54 42 .51 6-.71 12 .28 18.01.1 10.61-.16 21.21.23 31.82.05-.26.41-.78 1.24-1.04 1.65-7.24.74-14.52 0-21.78.24-8.67.23-17.32-.29-25.98-.65-10.65-.44-21.31-.19-31.97-.38-1.95.14-4.37-.44-5.73 1.35-7.31-1.69-15.09-1.45-22.45-.21l-.04-1.39c-28.84-.92-57.7.37-86.54.54-.82-.25-2.46-.76-3.28-1.02z"/><path fill="#A0D5F5" d="M752.295 989.463c28.84-.17 57.7-1.46 86.54-.54l.04 1.39c-7.15 15.49-15.01 30.64-22.35 46.03-20.48 41.83-40.71 83.77-61.36 125.51-30.7 3.23-61.24 7.86-91.73 12.63-.5-2.54.92-4.79 1.94-6.98 18.43-37.6 36.69-75.27 55.16-112.84 1.55-3.29 3-6.63 4.59-9.9 8.97-17.89 17.86-35.82 26.26-53.99.15-.33.46-.99.61-1.32l.3.01z"/><path fill="#9FD5F5" d="M861.325 990.523c1.36-1.79 3.78-1.21 5.73-1.35 10.66.19 21.32-.06 31.97.38-7.78 15.09-14.89 30.52-22.57 45.66-8.13 17.5-16.98 34.65-25.19 52.11-9.53 18.91-18.46 38.1-27.95 57.02-1.85 3.54-3.54 7.17-4.74 10.99-13.05 1.2-26.11 2.26-39.12 3.81 4.26-9.29 8.92-18.4 13.09-27.74 9.35-17.54 17.36-35.73 26.39-53.43 6.37-13.67 13.3-27.07 19.67-40.74 7.59-15.56 15.49-30.98 22.72-46.71z"/><path fill="#8496A7" d="M717.015 990.853c11.6-1.36 23.31-1.5 34.98-1.4-.15.33-.46.99-.61 1.32-7.44-.15-14.94-.5-22.29.93-7.6 1.54-15.47.14-23 2.13-4.31 1.09-8.79.51-13.14 1.14-6.4 1.01-12.75 2.58-19.25 2.69 3.35-2.27 7.57-1.74 11.34-2.71 5.18-1.42 10.62-1.22 15.84-2.47 5.31-1.19 10.8-.53 16.13-1.63z"/><path fill="#5AA6C8" d="M838.875 990.313c7.36-1.24 15.14-1.48 22.45.21-7.23 15.73-15.13 31.15-22.72 46.71-7.32-1.24-14.74-.04-22.08-.89 7.34-15.39 15.2-30.54 22.35-46.03zm37.58 44.9c7.68-15.14 14.79-30.57 22.57-45.66 8.66.36 17.31.88 25.98.65 7.26-.24 14.54.5 21.78-.24-.11 7.01.42 14.03.03 21.04-8.62.32-17.25.03-25.87.19-7.65 0-15.34 3.79-19.63 10.2-3.97 5.39-5.22 12.35-4.31 18.91a185 185 0 0 0-1.31-3.14c-5.56-.46-11.14.11-16.68-.33-1.23.03-2.08-.51-2.56-1.62z"/><path fill="#416877" d="M946.785 989.963c4.28-.98 8.7-.32 13.05-.49-.08 7.17-.25 14.36.11 21.53 9.7.44 19.41-.14 29.1.28 12.67 1 22.98 13.25 21.9 25.92-.32 9.35-6.53 18.05-15.18 21.54-4.93 2.32-10.5 1.82-15.78 1.84-18.67.01-37.34-.04-56 .03-4.74.13-9.61-.42-13.83-2.69-6.86-3.41-11.56-10.21-13.15-17.62-.91-6.56.34-13.52 4.31-18.91 4.29-6.41 11.98-10.2 19.63-10.2 8.62-.16 17.25.13 25.87-.19.39-7.01-.14-14.03-.03-21.04z"/><path fill="#5AA6C8" d="M959.835 989.473c70.05-.01 140.12-.82 210.18.14 8.73.12 17.28 2.18 26.04 1.92 28.22 2.48 56.66 7.27 82.89 18.41.44.31 1.32.93 1.77 1.25 6.98 1.94 13 6.2 19.16 9.87 21.17 13.19 36.98 33.09 50.37 53.77 9.39 14.96 17.58 30.61 25.7 46.29 9.67 19.8 19.47 39.58 28.52 59.7 2.72 6.59 6.61 12.7 8.59 19.6-7.81.92-14.84-3.26-22.19-5.04-6.52-1.13-12.77-3.42-19.28-4.64-6.28-1.1-12.25-3.43-18.54-4.46-10.29-1.77-20.25-4.94-30.53-6.74-5.05-1.72-10.52-.69-15.56-2.29 1.63-.09 3.28-.22 4.94-.33-4.08-9.93-9.28-19.33-13.79-29.05-7.28-14.48-14.87-28.85-23.57-42.54-5.9-8.31-11.24-17.15-18.73-24.18-11.32-12.62-25.7-22.43-41.53-28.47-22.67-9.06-47.12-12.36-71.32-14.1-43.93-2.87-88.02-1.98-132.01-1.38 1.08-12.67-9.23-24.92-21.9-25.92-9.69-.42-19.4.16-29.1-.28-.36-7.17-.19-14.36-.11-21.53zm-230.74 2.23c7.35-1.43 14.85-1.08 22.29-.93-8.4 18.17-17.29 36.1-26.26 53.99-12.81 1.75-25.13 6.23-36.77 11.75-11.41 5.53-21.87 13.03-30.69 22.14-3.96 5.34-9.14 9.63-12.92 15.12-20.54 28.5-34.92 60.76-49.9 92.37-9.65 1.91-19.3 3.83-28.95 5.7-7.19 2.22-14.86 2.45-21.86 5.29-8.67 3.67-18.24 3.84-27.38 5.56-6.07 1.51-12.1 3.16-18.18 4.62-1.21.44-2.29-.39-3.34-.8 17.43-38.98 35.33-77.82 56.08-115.15 13.65-24.05 29.65-47.44 51.79-64.43 16.69-13.05 36.77-20.81 56.98-26.51 4.65-.55 9-2.7 13.72-2.76 6.5-.11 12.85-1.68 19.25-2.69 4.35-.63 8.83-.05 13.14-1.14 7.53-1.99 15.4-.59 23-2.13z"/><path fill="#4FCAF4" d="M851.265 1087.323c8.21-17.46 17.06-34.61 25.19-52.11.48 1.11 1.33 1.65 2.56 1.62 5.54.44 11.12-.13 16.68.33.44 1.03.88 2.08 1.31 3.14 1.59 7.41 6.29 14.21 13.15 17.62 4.22 2.27 9.09 2.82 13.83 2.69 18.66-.07 37.33-.02 56-.03 5.28-.02 10.85.48 15.78-1.84 8.65-3.49 14.86-12.19 15.18-21.54 43.99-.6 88.08-1.49 132.01 1.38 24.2 1.74 48.65 5.04 71.32 14.1 15.83 6.04 30.21 15.85 41.53 28.47 7.49 7.03 12.83 15.87 18.73 24.18 8.7 13.69 16.29 28.06 23.57 42.54 4.51 9.72 9.71 19.12 13.79 29.05-1.66.11-3.31.24-4.94.33-8.58-3.25-17.86-3.69-26.78-5.56-3.17-1.29-3.9-5.1-5.17-7.91-2.79-8.27-6.88-16.02-11.63-23.32-13.8-20.49-33.64-37.35-57.06-45.66-8.96-3.89-18.66-5.78-28.3-6.98-19.85-1.7-40.43-.42-58.97 7.38-7.67 2.83-14.6 7.19-21.57 11.37-11.74 7.6-21.89 17.57-30.23 28.77-3.36 4.07-5.42 9.07-8.92 13.01-5.05 1.05-10.27-.04-15.38.06-28.63-.26-57.27-1.13-85.91-.18-16.69-.18-33.34.99-50.02 1.48-10.02.47-20.05.55-30.03 1.61-19.5.88-38.95 2.51-58.41 4.01 1.2-3.82 2.89-7.45 4.74-10.99 9.49-18.92 18.42-38.11 27.95-57.02zm-96.1 74.53c20.65-41.74 40.88-83.68 61.36-125.51 7.34.85 14.76-.35 22.08.89-6.37 13.67-13.3 27.07-19.67 40.74-9.03 17.7-17.04 35.89-26.39 53.43-4.17 9.34-8.83 18.45-13.09 27.74-8.11.77-16.19 1.84-24.29 2.71zm-66.81-105.34c11.64-5.52 23.96-10 36.77-11.75-1.59 3.27-3.04 6.61-4.59 9.9-18.47 37.57-36.73 75.24-55.16 112.84-1.02 2.19-2.44 4.44-1.94 6.98-6.08 1.5-12.4 1.42-18.5 2.8-10.14 2.7-20.63 3.65-30.89 5.77-6.38 1.14-12.73 2.52-19.2 3.09 14.98-31.61 29.36-63.87 49.9-92.37 3.78-5.49 8.96-9.78 12.92-15.12 8.82-9.11 19.28-16.61 30.69-22.14z"/><path fill="#79A3BC" d="M1119.045 1095.203c18.54-7.8 39.12-9.08 58.97-7.38 9.64 1.2 19.34 3.09 28.3 6.98 23.42 8.31 43.26 25.17 57.06 45.66 4.75 7.3 8.84 15.05 11.63 23.32 1.27 2.81 2 6.62 5.17 7.91 8.92 1.87 18.2 2.31 26.78 5.56 5.04 1.6 10.51.57 15.56 2.29 10.28 1.8 20.24 4.97 30.53 6.74 6.29 1.03 12.26 3.36 18.54 4.46 6.51 1.22 12.76 3.51 19.28 4.64 7.35 1.78 14.38 5.96 22.19 5.04l.81-.05c-.19 1.04-.35 2.1-.49 3.18-2.67-1.05-5.52-1.39-8.36-1.32-3.35.19-6.43-1.35-9.69-1.68-12.52-.61-24.89-2.67-37.42-3.12-7.36-1.19-14.82-1.52-22.25-1.96-8.52-1.18-17.13-1.62-25.72-2-9.27-1.26-18.63-1.67-27.98-2.05-9.96-1.29-20.01-1.52-30.02-2.11-6.57-1.46-13.33-.46-19.95-1.31-4.3-.63-8.66-.32-12.96-.65-8.79-1.64-17.81-.37-26.63-1.78-6.78-.9-13.61-.99-20.4-1.68-7.25-.71-14.58.39-21.77-.94-6.38-.92-12.84-.21-19.25-.7-13.62-1.06-27.31-.39-40.94-1.22-8.3-.86-16.65-.47-24.96-1.05-2.61-.22-5.22-.08-7.79.38-5.77.32-11.55-.12-17.31-.31-4.71.55-9.39-.03-14.07-.33-42.65-.2-85.3-.32-127.95-.1-7.65.21-15.32-.3-22.94.61-12.21.21-24.44.12-36.65.37-11.31 1.78-22.83.19-34.17 1.6-7.08.46-14.21-.07-21.28.53-8.24 1.44-16.64.32-24.92 1.34-4.98.63-10.04-.05-15 .78-6.95 1.24-14.06.19-21.03 1.31-5.34.25-10.68.28-15.96 1.25-7.58-.09-15.07 1.09-22.64 1.08-10.06 1.63-20.33 1.17-30.4 2.77-6.11.39-12.18 1.15-18.29 1.32-5.17 1.15-10.48.92-15.7 1.62-12.33 1.29-24.67 2.54-36.99 3.95-4.02.14-7.99.66-11.84 1.85-25.37 2.35-50.72 5.49-75.86 9.83.02-1.25.04-2.48.07-3.7.19.1.59.29.78.38 1.05.41 2.13 1.24 3.34.8 6.08-1.46 12.11-3.11 18.18-4.62 9.14-1.72 18.71-1.89 27.38-5.56 7-2.84 14.67-3.07 21.86-5.29 9.65-1.87 19.3-3.79 28.95-5.7 6.47-.57 12.82-1.95 19.2-3.09 10.26-2.12 20.75-3.07 30.89-5.77 6.1-1.38 12.42-1.3 18.5-2.8 30.49-4.77 61.03-9.4 91.73-12.63 8.1-.87 16.18-1.94 24.29-2.71 13.01-1.55 26.07-2.61 39.12-3.81 19.46-1.5 38.91-3.13 58.41-4.01 9.98-1.06 20.01-1.14 30.03-1.61 16.68-.49 33.33-1.66 50.02-1.48 28.64-.95 57.28-.08 85.91.18 5.11-.1 10.33.99 15.38-.06 3.5-3.94 5.56-8.94 8.92-13.01 8.34-11.2 18.49-21.17 30.23-28.77 6.97-4.18 13.9-8.54 21.57-11.37m29 12.46c-8.54.8-17.4 2.56-24.62 7.41-9.5 3.93-18.05 9.9-25.84 16.55-5.63 5.41-11.53 10.74-15.36 17.65 6.4 2.33 13.36.28 19.95 1.62 4.85 1.11 9.87.18 14.77.98 4.98.82 10.08.17 15.04 1.26 10.69.92 21.4 1.36 32.06 2.75 4.62.75 9.34.33 13.95 1.25 6.95 1.21 13.9 2.54 20.97 2.79 7.74.31 15.34 1.86 23.04 2.54 5.44.36 10.52 2.71 15.97 3.03 6 .35 11.77 2.67 17.86 2.07-.77-4.35-3.91-7.58-6.07-11.25-5.28-7.97-9.94-16.55-17.22-22.92-4.24-4.86-10.21-7.5-15-11.66-4.67-2.03-9.22-4.29-13.75-6.59-17.4-7.58-36.97-10.69-55.75-7.48z"/><path fill="#4FCAF4" d="M1148.045 1107.663c18.78-3.21 38.35-.1 55.75 7.48 4.53 2.3 9.08 4.56 13.75 6.59 4.79 4.16 10.76 6.8 15 11.66 7.28 6.37 11.94 14.95 17.22 22.92 2.16 3.67 5.3 6.9 6.07 11.25-6.09.6-11.86-1.72-17.86-2.07-5.45-.32-10.53-2.67-15.97-3.03-7.7-.68-15.3-2.23-23.04-2.54-7.07-.25-14.02-1.58-20.97-2.79-4.61-.92-9.33-.5-13.95-1.25-10.66-1.39-21.37-1.83-32.06-2.75-4.96-1.09-10.06-.44-15.04-1.26-4.9-.8-9.92.13-14.77-.98-6.59-1.34-13.55.71-19.95-1.62 3.83-6.91 9.73-12.24 15.36-17.65 7.79-6.65 16.34-12.62 25.84-16.55 7.22-4.85 16.08-6.61 24.62-7.41z"/><path fill="#416877" d="M1551.995 1136.893c9.35-.48 18.85-2.48 28.13-.22 10.06 2.13 19.97 7.75 25.05 16.98 3.52 5.82 2.53 12.87 3.03 19.36-.26 8.84 1.27 18.65-3.94 26.43-5.73 9.08-16.08 13.79-26.23 15.99-12 .75-24.02.3-36.03.42-15.35-.08-30.7.14-46.04-.08-10.83-.06-21.84-5.86-26.55-15.87-3.97-8.8-2.62-18.6-2.87-27.94-.23-6.3 1.66-12.72 5.78-17.56 6.87-8.34 17.53-12.74 28.11-13.74 17.21-1 34.37-2.52 51.56-3.77zm-1248.07 27.02c8.13-9.34 20.93-13.42 33.03-13.34 16.65 1.56 33.37 2.28 50 4.1 9.94 1.14 20.28-.14 29.83 3.47 8.2 2.84 15.78 8.32 19.86 16.12 3.31 6.38 2.69 13.79 2.42 20.73-.4 5.3.07 10.73-1.34 15.92-1.83 5.74-5.23 11.08-10.3 14.48-6.06 4.2-13.57 5.7-20.85 5.58-19.83-.47-39.67-.08-59.51-.21-8.76-.2-17.83.93-26.22-2.22-10.78-3.41-21.29-11.84-22.93-23.61-.61-7.64-.06-15.32-.28-22.98-.32-6.54 1.9-13.15 6.29-18.04z"/><path fill="#B48284" d="M1057.285 1180.363c2.57-.46 5.18-.6 7.79-.38 8.31.58 16.66.19 24.96 1.05 13.63.83 27.32.16 40.94 1.22 6.41.49 12.87-.22 19.25.7 7.19 1.33 14.52.23 21.77.94 6.79.69 13.62.78 20.4 1.68-3.32 1.31-6.91.63-10.35.58-6.71-.45-13.42-.43-20.12-.75-11.08-1.6-22.32-.34-33.45-1.09-6.44-1.29-13.05-.25-19.5-1.47-14.28-.6-28.59 0-42.87-.47-8.61-1.43-17.34-.26-26.01-.83 5.71-.73 11.63.6 17.19-1.18z"/><path fill="#CF6D60" d="M859.325 1200.623c13.2-.87 26.43-.35 39.65-.63 40.66-.02 81.31-.12 121.97.09 5.42.17 10.88-.22 16.29.44 6.66.91 13.4.08 20.09.74 15.51 1.4 31.14.19 46.67 1.58 5.2.57 10.46-.14 15.65.61 7.42 1.07 14.94.23 22.39.81 4.63.69 9.32.89 14 .82 6.33-.2 12.55 1.4 18.89.99 6.08-.44 12.03 1.26 18.1 1.01 5.34-.08 10.6 1.21 15.96.96 4.03-.14 7.98.87 12.01.97 6.35-.01 12.63 1.31 19 1.03 11.03.62 21.94 2.72 32.99 3.13 23.86 3.17 47.8 6.47 71.08 12.7 6.99 2.63 14.44 4.19 20.94 8.01 4.26 2.11 8.54 4.92 10.86 9.2.19 2.72.73 6.16-1.58 8.19-8.45 9.18-20.79 12.92-32.32 16.58-8.96 2.27-17.6 5.55-26.24 8.79-6.62 3.33-13.84 5.26-20.34 8.84-4.15 2.44-8.07 5.25-12.23 7.68-4.27 2.15-5.61 7.09-8.35 10.68-3.86 7.36 5.15 14.89 1.18 22.22-2.82 2.85-7.23 3.04-10.9 4.15-4.91 1.43-10.01 1.62-15.07 1.96-12.03 2.11-24.12-.67-36.04-2.23-13.18-2.76-26.59-4.17-39.96-5.79-5.01-.37-9.97-1.46-15.01-1.26-5.04.15-9.97-1.31-15.01-.97-6.04.43-11.95-1.37-17.98-.97-27.32-.22-54.64-.14-81.96-.06-7.35.13-14.74-.35-22.03.87-8.34.25-16.7.11-25.04.23-4.34.28-8.64 1.17-13 .89-5.05-.35-9.96 1.32-15.01 1.04-9.34-.25-18.77.87-28.05-.67-3.62-.45-7.29.04-10.89-.59-6.98-1.34-14.14-.16-21.12-1.55-8.35.24-16.58-1.63-24.94-1.13-6.01.38-11.91-1.03-17.9-.96-6.37-.32-12.78.37-19.09-.79-26.66-.15-53.43-.92-80.01 1.63-10.27-.18-20.39 1.92-30.61 2.54-7.74 2.29-16.01 1.74-23.7 4.26-4.43 1.46-9.13 1.62-13.65 2.68-13.02 3.41-26.74 4.83-40.08 2.64-4.73-.75-9.86-1.25-13.81-4.19-2.44-2.39.38-5.71 1.62-7.99 3.69-4.54 6.5-9.94 7.07-15.82-.85-5.98-2.8-12.28-7.57-16.29-3.63-3.05-6.14-7.3-10.36-9.62-10.13-7.94-21.61-13.84-32.8-20.08-6.21-2.6-12.24-5.6-18.15-8.82-3.73-2.11-7.15-5.39-8.48-9.52.33-4.8 4.93-7.56 8.86-9.35 9.42-4.21 19.53-6.53 29.59-8.63 10.3-2.69 20.98-3.2 31.39-5.27 10.92-.7 21.63-3.17 32.56-3.76 10.32-1.39 20.67-2.39 31.07-2.93 6.38-.44 12.67-2.04 19.1-1.71 12.64-1.15 25.31-2.13 37.98-3.17 6.8-1.46 13.8-.08 20.63-1.26 5.42-.91 10.92-.19 16.37-.69 12.92-1.84 26.06.06 39-1.67 5.43-.26 10.89-.14 16.32-.59z"/><path fill="#A8ADBD" d="M1469.415 1199.903c4.71 10.01 15.72 15.81 26.55 15.87 15.34.22 30.69 0 46.04.08 12.01-.12 24.03.33 36.03-.42l-1.18.67c-24.7.62-49.43.03-74.14.3-2.48 4.56-4.57 9.31-6.94 13.92-3.93-2.16-7.97-4.13-12.2-5.62-5.57-1.87-10.62-5.03-16.26-6.7.67-6.05 3.47-11.94 2.1-18.1zm-1041.99 25.49c5.07-3.4 8.47-8.74 10.3-14.48-2.2 6.35.6 12.85 2.88 18.75-9.22 4.28-18.12 9.24-26.37 15.19-3.1-4.31-5.47-9.07-7.66-13.88 7.28.12 14.79-1.38 20.85-5.58z"/><path fill="#E2925F" d="M465.025 1302.213c18.18-4.83 37.92-3.61 55.35 3.49 20.54 7.92 37.33 24.3 46.95 43.98 7.38 16.32 10.57 34.87 7.14 52.58-5.05 34.17-32.62 63.42-66.15 71.22-4.99 1.59-10.29 1.03-15.36 2.14-16.59 1.36-33.43-2.57-47.99-10.54-15.88-8.51-28.81-22.21-36.78-38.34-9.99-19.88-11.75-43.6-5.32-64.84 7.22-24.33 25.7-45.02 48.97-55.08 4.51-1.22 8.67-3.42 13.19-4.61m-29.86 21.92c-6.91 4.79-11.8 11.74-16.59 18.51-11.48 19.57-12.66 44.95-2.62 65.36 3.44 7.13 8.43 13.41 13.72 19.25 7.49 6.24 15.6 12.18 24.96 15.27 1.85.6 3.9 1.84 5.8.62 13.45 6.51 29.18 8 43.58 3.96 15.02-4.12 28.35-14.23 36.28-27.65 10.83-17.5 11.67-40.53 2.55-58.93l.69-1.12c-1.6-7.93-5.87-15.07-10.14-21.85-11.49-15.22-29.22-26.19-48.43-27.72-17.64-2.35-35.98 3.17-49.8 14.3zm972.22-17.81c19.03-7.86 40.83-9.39 60.54-3.1 2.45.96 4.94 1.82 7.48 2.59 31.89 12.36 54.62 44.91 55.06 79.14.93 21.81-6.94 43.74-21.19 60.23-17.78 20.96-45.78 32.78-73.22 30.44-7.25-1.17-14.71-1.43-21.62-4.16-20.84-6.61-38.82-21.56-49.21-40.78-4.91-7.74-7.62-16.67-9.53-25.56-5.11-23.64.62-49.17 14.67-68.74 4.36-6.83 10.63-12.08 16.44-17.61 6.18-5.17 13.5-8.71 20.58-12.45m3.05 17.08c-10.21 6.91-17.43 17.57-22.02 28.88-.61 1.95-2.1 4.26-.54 6.17-4.42 8.49-7.21 17.84-7.29 27.46-.74 19.14 8.23 38.36 23.38 50.08 13.22 10.84 31.2 15.2 48.01 12.6 9.64-1.34 18.48-5.82 26.55-11.08-.1.68-.3 2.04-.4 2.71 1.72-.12 3.6.01 5.16-.93 6.4-4.12 13.09-8.05 18.14-13.87 12.94-13.16 20.08-31.98 18.82-50.43.37-11.36-3.82-22.21-9.11-32.06-8.88-14.5-22.91-26.07-39.41-30.64-20.62-6.39-44.27-2.2-61.29 11.11z"/><path fill="#B9503F" d="M419.515 1323.473c9.64-8.19 20.83-15.16 33.22-18.12l-.9 1.47c-23.27 10.06-41.75 30.75-48.97 55.08-6.43 21.24-4.67 44.96 5.32 64.84 7.97 16.13 20.9 29.83 36.78 38.34 14.56 7.97 31.4 11.9 47.99 10.54 1.01.25 2.03.55 3.04.9-19.47 3.97-40.28 1.41-58.03-7.57-14.28-7.23-26.58-18.28-35.03-31.91-12.68-19.5-16.23-44.09-11.48-66.69 4.17-18.03 13.94-34.84 28.06-46.88zm1055.02-18.71c9.24 1.61 17.6 6.37 25.63 11.03 16.02 10.79 29.05 26.48 35.2 44.92 6.63 18.8 6.5 39.76.03 58.58-6.53 17.95-18.63 34-34.75 44.38-19.37 13.09-44.05 17.5-66.9 12.9.58-.24 1.74-.71 2.31-.95 27.44 2.34 55.44-9.48 73.22-30.44 14.25-16.49 22.12-38.42 21.19-60.23-.44-34.23-23.17-66.78-55.06-79.14l-.87-1.05z"/><path fill="#E3705E" d="M435.165 1324.133c13.82-11.13 32.16-16.65 49.8-14.3 19.21 1.53 36.94 12.5 48.43 27.72 4.27 6.78 8.54 13.92 10.14 21.85l-.69 1.12c-7.46-15.43-21.64-27.44-38.14-32.13-15.34-4.5-32.4-2.8-46.47 4.82-14.61 7.81-25.89 21.75-30.26 37.76-4.87 17.51-1.78 37.27 8.92 52.07 5.91 8.6 14.14 15.58 23.54 20.1-1.9 1.22-3.95-.02-5.8-.62-9.36-3.09-17.47-9.03-24.96-15.27-5.29-5.84-10.28-12.12-13.72-19.25-10.04-20.41-8.86-45.79 2.62-65.36 4.79-6.77 9.68-13.72 16.59-18.51zm975.27-.73c17.02-13.31 40.67-17.5 61.29-11.11 16.5 4.57 30.53 16.14 39.41 30.64 5.29 9.85 9.48 20.7 9.11 32.06 1.26 18.45-5.88 37.27-18.82 50.43-5.05 5.82-11.74 9.75-18.14 13.87-1.56.94-3.44.81-5.16.93.1-.67.3-2.03.4-2.71 11.89-8.4 20.37-21.34 23.78-35.46 4.1-17.44.51-36.67-10.34-51.05-11.21-15.41-29.93-25.04-49-25.1-22.51-.56-44.72 12.57-55.09 32.55-1.56-1.91-.07-4.22.54-6.17 4.59-11.31 11.81-21.97 22.02-28.88z"/><path fill="#FECF67" d="M458.235 1333.213c14.07-7.62 31.13-9.32 46.47-4.82 16.5 4.69 30.68 16.7 38.14 32.13 9.12 18.4 8.28 41.43-2.55 58.93-7.93 13.42-21.26 23.53-36.28 27.65-14.4 4.04-30.13 2.55-43.58-3.96-9.4-4.52-17.63-11.5-23.54-20.1-10.7-14.8-13.79-34.56-8.92-52.07 4.37-16.01 15.65-29.95 30.26-37.76m26.84-.15c-5.37.77-10.26 3.35-14.56 6.56-4.21 3.17-6.64 7.96-9.61 12.18-1.65 5.82-3.28 12.06-1.77 18.11 1.9 9.87 7.79 19.7 17.41 23.67 7.29 4.21 16.2 3.66 24.07 1.69 5.38-2.31 11.22-5.48 13.54-11.19 6.23-8.2 7.78-19.49 5.07-29.3-1-4.75-4.21-8.42-6.76-12.37-2.07-2.85-5.29-4.39-8.41-5.79-5.73-3.05-12.51-5.01-18.98-3.56zm902.8 25.39c10.37-19.98 32.58-33.11 55.09-32.55 19.07.06 37.79 9.69 49 25.1 10.85 14.38 14.44 33.61 10.34 51.05-3.41 14.12-11.89 27.06-23.78 35.46-8.07 5.26-16.91 9.74-26.55 11.08-16.81 2.6-34.79-1.76-48.01-12.6-15.15-11.72-24.12-30.94-23.38-50.08.08-9.62 2.87-18.97 7.29-27.46m39.1-23.4c-4.22 1.8-7.42 5.16-10.57 8.37-6.15 6.96-8.07 16.59-7.08 25.65.1 6.8 4.57 12.22 7.71 17.89 2.78 3.37 6.8 5.42 10.61 7.45 3.8 2.07 8.27 1.79 12.4 2.77 4.58-.73 9.36-1.02 13.42-3.55 12.76-4.85 19.14-19.62 17.88-32.58-1.71-11.07-8.49-21.93-19.14-26.26-7.94-3.71-17.26-2.93-25.23.26z"/><path fill="#FAE0BB" d="M1426.975 1335.053c7.97-3.19 17.29-3.97 25.23-.26 10.65 4.33 17.43 15.19 19.14 26.26 1.26 12.96-5.12 27.73-17.88 32.58-4.06 2.53-8.84 2.82-13.42 3.55-4.13-.98-8.6-.7-12.4-2.77-3.81-2.03-7.83-4.08-10.61-7.45-3.14-5.67-7.61-11.09-7.71-17.89-.99-9.06.93-18.69 7.08-25.65 3.15-3.21 6.35-6.57 10.57-8.37z"/><path fill="#FBE1BC" d="M485.075 1333.063c6.47-1.45 13.25.51 18.98 3.56 3.12 1.4 6.34 2.94 8.41 5.79 2.55 3.95 5.76 7.62 6.76 12.37 2.71 9.81 1.16 21.1-5.07 29.3-2.32 5.71-8.16 8.88-13.54 11.19-7.87 1.97-16.78 2.52-24.07-1.69-9.62-3.97-15.51-13.8-17.41-23.67-1.51-6.05.12-12.29 1.77-18.11 2.97-4.22 5.4-9.01 9.61-12.18 4.3-3.21 9.19-5.79 14.56-6.56z"/><path fill="#5E626D" d="M747.955 1351.283c10.94-1.57 21.99-1.75 32.98-2.69 14.69-.08 29.37-.17 44.05.13 11.62 1.3 23.36.44 35 1.54 13.71-.06 27.33 1.48 41.03 1.48 10.95 1.18 22.01.24 32.96 1.46 13.99.58 28.03.13 42.01 1.07 26.68.15 53.35.21 80.03.01 11.27.15 22.51-.83 33.79-.63 40.37-.09 80.89-1.61 121.09 2.46 10.36 2.25 21.03 3.45 31.01 7.25 9.68 3.19 18.35 9.12 25.08 16.74 4.51 5.49 6.8 12.41 8.36 19.24 2.12 12.19.73 24.73-1.88 36.73-4.01 19.05-12.42 37.4-25.42 51.98-6.88 6.77-13.99 13.29-21.6 19.25-15.2 10.39-32.31 17.7-49.89 22.99-8.1 3.21-16.85 3.91-25.19 6.23-34.54 7.4-69.84 10.36-105.06 11.91-8.82-.19-17.56 1.31-26.37 1.11-30.32.25-60.64.18-90.95-.02-9.14.18-18.2-1.21-27.33-1.06-13.85-.49-27.73-.57-41.51-1.95-13.97-.28-27.82-2.13-41.74-3.1-8.81-1.41-17.74-1.73-26.51-3.29-13.2-1.3-26.02-4.78-39.04-7.09-8.57-2.78-17.42-4.72-25.8-8.04-5.63-2.65-11.85-3.79-17.27-6.9-17.17-8.11-33.35-20.59-41.34-38.27-8.17-16.96-7.98-36.6-4.67-54.75 1.59-10.94 5.84-21.19 10.14-31.29 4.16-8.22 10.17-15.47 17.13-21.49 16.35-12.46 36.56-19.19 56.91-21.01m22.38 13.15c-7.16.41-14.31.99-21.44 1.82-16.73 2.17-34.2 6.03-47.52 17.03-13.14 11.88-18.58 29.71-21.01 46.74-3.11 17.94-.31 37.68 11.21 52.27 12.22 15.49 30.95 23.81 49.16 30.06 21.52 6.96 43.89 10.88 66.29 13.75 27.17 3.48 54.53 5.15 81.87 6.54 8.7-.02 17.35 1.19 26.06.97 65.69 1.2 131.67 2.13 197.02-5.74 20.47-2.63 40.87-6.31 60.66-12.27 18.27-5.7 36.4-13.29 51.22-25.66 14.01-11.16 24.15-26.8 29.37-43.87 3.52-11.32 5.87-23.15 5.58-35.04-.4-7.6-2.24-15.59-7.42-21.42-5.54-7.12-14.27-10.61-22.6-13.28-11.01-3.37-22.5-4.75-33.91-5.9-32.92-2.58-65.97-1.75-98.95-1.49-8.98-.03-17.92.76-26.89.65-29.03.08-58.05.28-87.07.05-28.35.07-56.65-1.81-84.98-2.47-10.92-.56-21.86-.48-32.74-1.59-31.29-.7-62.61-2.7-93.91-1.15z"/><path fill="#787E8A" d="M770.335 1364.433c31.3-1.55 62.62.45 93.91 1.15 10.88 1.11 21.82 1.03 32.74 1.59 28.33.66 56.63 2.54 84.98 2.47 29.02.23 58.04.03 87.07-.05 8.97.11 17.91-.68 26.89-.65 32.98-.26 66.03-1.09 98.95 1.49 11.41 1.15 22.9 2.53 33.91 5.9 8.33 2.67 17.06 6.16 22.6 13.28 5.18 5.83 7.02 13.82 7.42 21.42.29 11.89-2.06 23.72-5.58 35.04-5.22 17.07-15.36 32.71-29.37 43.87-14.82 12.37-32.95 19.96-51.22 25.66-19.79 5.96-40.19 9.64-60.66 12.27-65.35 7.87-131.33 6.94-197.02 5.74-8.71.22-17.36-.99-26.06-.97-27.34-1.39-54.7-3.06-81.87-6.54-22.4-2.87-44.77-6.79-66.29-13.75-18.21-6.25-36.94-14.57-49.16-30.06-11.52-14.59-14.32-34.33-11.21-52.27 2.43-17.03 7.87-34.86 21.01-46.74 13.32-11 30.79-14.86 47.52-17.03 7.13-.83 14.28-1.41 21.44-1.82m17.74 9.39c-8.68 44.1-16.96 88.29-25.41 132.44 12.81 3.99 26 6.76 39.28 8.66 6.63-34.98 13.43-69.92 20.08-104.89 2.08-12.21 5.01-24.28 6.77-36.53-13.56.21-27.22-.8-40.72.32m84.67 1.68c-7.76 40.28-15.48 80.57-23.15 120.87-1.33 8.01-3.6 15.91-4.21 24.02 13.39.73 26.73 2.34 40.15 2.36 9.13-48.66 18.81-97.22 27.74-145.92-13.52-.17-27.01-1.12-40.53-1.33m84.53 2.83c-9.47 48.73-18.71 97.5-28.05 146.25 13.62-.2 27.22.95 40.83.42 9.37-48.73 18.83-97.45 27.93-146.22-13.57.01-27.14-.32-40.71-.45m85.29.24c-.74 2.05-1.22 4.18-1.52 6.35-8.82 46.55-17.93 93.06-26.62 139.64 13.64.24 27.27-.74 40.91-1.19 7.62-37.74 14.5-75.64 21.87-113.43 1.78-10.6 4.41-21.06 5.78-31.71-13.48.14-26.95.44-40.42.34m83.6 5.32c-8.46 45.17-17.48 90.25-25.73 135.46 14.18-1.94 28.43-3.85 42.3-7.45 6.73-35.3 13.51-70.58 20.26-105.87 1.54-9.21 4.06-18.28 4.86-27.57-13.43-.38-26.86-.68-40.29-.88-.55 2.08-1.06 4.17-1.4 6.31m-399.86 2.36c-9.03 5.46-15.07 14.73-18.56 24.51-2.8 8.12-4.74 16.57-5.39 25.14-1.22 11.56.06 23.73 5.65 34.08 3.47 6.38 8.08 12.33 14.12 16.47 2.98-12.77 5.06-25.74 7.65-38.6 4.32-22.79 8.75-45.56 13.09-68.35-5.9 1.13-11.43 3.7-16.56 6.75m484.88-1.22c-7.24 36.28-13.88 72.69-21.03 108.99 6.26-2.5 11.43-7.06 16.59-11.28 14.22-12.25 23.38-29.66 26.86-47.99 2.08-11.02 3.75-22.99-.78-33.62-3.95-8.68-12.99-13.33-21.64-16.1z"/><path fill="#2C2F36" d="M788.075 1373.823c13.5-1.12 27.16-.11 40.72-.32-1.76 12.25-4.69 24.32-6.77 36.53-6.65 34.97-13.45 69.91-20.08 104.89-13.28-1.9-26.47-4.67-39.28-8.66 8.45-44.15 16.73-88.34 25.41-132.44zm84.67 1.68c13.52.21 27.01 1.16 40.53 1.33-8.93 48.7-18.61 97.26-27.74 145.92-13.42-.02-26.76-1.63-40.15-2.36.61-8.11 2.88-16.01 4.21-24.02 7.67-40.3 15.39-80.59 23.15-120.87zm84.53 2.83c13.57.13 27.14.46 40.71.45-9.1 48.77-18.56 97.49-27.93 146.22-13.61.53-27.21-.62-40.83-.42 9.34-48.75 18.58-97.52 28.05-146.25zm85.29.24c13.47.1 26.94-.2 40.42-.34-1.37 10.65-4 21.11-5.78 31.71-7.37 37.79-14.25 75.69-21.87 113.43-13.64.45-27.27 1.43-40.91 1.19 8.69-46.58 17.8-93.09 26.62-139.64.3-2.17.78-4.3 1.52-6.35zm83.6 5.32c.34-2.14.85-4.23 1.4-6.31 13.43.2 26.86.5 40.29.88-.8 9.29-3.32 18.36-4.86 27.57-6.75 35.29-13.53 70.57-20.26 105.87-13.87 3.6-28.12 5.51-42.3 7.45 8.25-45.21 17.27-90.29 25.73-135.46zm-399.86 2.36c5.13-3.05 10.66-5.62 16.56-6.75-4.34 22.79-8.77 45.56-13.09 68.35-2.59 12.86-4.67 25.83-7.65 38.6-6.04-4.14-10.65-10.09-14.12-16.47-5.59-10.35-6.87-22.52-5.65-34.08.65-8.57 2.59-17.02 5.39-25.14 3.49-9.78 9.53-19.05 18.56-24.51zm484.88-1.22c8.65 2.77 17.69 7.42 21.64 16.1 4.53 10.63 2.86 22.6.78 33.62-3.48 18.33-12.64 35.74-26.86 47.99-5.16 4.22-10.33 8.78-16.59 11.28 7.15-36.3 13.79-72.71 21.03-108.99z"/><path fill="#B94F3F" d="M667.415 1405.383c1.98-3.95 3.4-8.36 6.5-11.6-4.3 10.1-8.55 20.35-10.14 31.29-3.31 18.15-3.5 37.79 4.67 54.75 7.99 17.68 24.17 30.16 41.34 38.27 5.42 3.11 11.64 4.25 17.27 6.9 8.38 3.32 17.23 5.26 25.8 8.04 13.02 2.31 25.84 5.79 39.04 7.09 8.77 1.56 17.7 1.88 26.51 3.29 13.92.97 27.77 2.82 41.74 3.1 13.78 1.38 27.66 1.46 41.51 1.95 9.13-.15 18.19 1.24 27.33 1.06 30.31.2 60.63.27 90.95.02 8.81.2 17.55-1.3 26.37-1.11 35.22-1.55 70.52-4.51 105.06-11.91 8.34-2.32 17.09-3.02 25.19-6.23 17.58-5.29 34.69-12.6 49.89-22.99 7.61-5.96 14.72-12.48 21.6-19.25-1.24 3.18-3.97 5.36-6.2 7.82-13.54 14.25-30.64 24.72-48.8 32.01-17.97 7.49-36.93 12.19-55.99 15.89-33.33 6.14-67.19 8.76-101.02 10.02-26.64 1.5-53.34.7-80.01.99-48.07-.36-96.2-1.75-144.04-6.69-23.25-2.58-46.48-5.98-69.12-11.97-20.65-5.61-41.29-13.36-58.15-26.86-13.92-11.08-23.41-27.53-25.68-45.22-2.56-19.84 1.17-40.13 8.38-58.66z"/><path fill="#E2925F" d="M572.675 1460.673c8.9-11.5 24.15-16.47 38.31-15.75 9.23-.15 19.64-.42 27.05 6.04 6.87 6.1 7.72 16.07 6.49 24.63-1.14 8.77-4.43 17.28-9.44 24.57-5.55 7.99-14.28 14.19-24.17 14.95-14.91 1.03-30.86-5.06-39.6-17.53-2.9-4.05-4.55-8.83-5.58-13.65-.34-8.21 1.3-16.99 6.94-23.26m26.55-3.2c-8.75 1.95-17.27 7.31-20.74 15.88-1.99 6.04-1.13 13.13 2.83 18.22 4.12 5.87 10.87 9.28 17.66 11.02 6.62 1.22 14.34 1.92 20-2.48 7.41-5.01 11.07-13.69 13.32-22.02 1-5.02 1.76-10.41.07-15.36-1.99-4.78-7.81-5.91-12.42-6.06-6.9.03-13.92-.65-20.72.8zm683.92-5.23c6.76-7.35 17.58-7.57 26.85-7.34 10.11-.5 20.6 1.34 29.23 6.86 6.95 3.84 12.42 10.18 15.36 17.55 1.94 4.63 1.71 9.79 1.71 14.71-1.11 6.04-3.6 11.9-7.74 16.5-8.74 10.1-22.43 15.04-35.59 14.71-9.33-.2-18.04-5.23-23.84-12.37-6.5-7.99-10.5-17.97-11.54-28.2-.96-7.71-.71-16.87 5.56-22.42m13.2 5.21c-3.62.86-6.84 3.66-7.25 7.51-1.19 9.48 1.61 19.24 6.65 27.28 3.37 5.46 8.74 10.16 15.29 11.06 10.47 1.15 21.82-2.31 28.8-10.45 5.8-6.24 6.65-16.55 1.66-23.51-6.04-8.78-17.06-12.94-27.45-12.75-5.9.12-11.89-.4-17.7.86z"/><path fill="#FECF67" d="M599.225 1457.473c6.8-1.45 13.82-.77 20.72-.8 4.61.15 10.43 1.28 12.42 6.06 1.69 4.95.93 10.34-.07 15.36-2.25 8.33-5.91 17.01-13.32 22.02-5.66 4.4-13.38 3.7-20 2.48-6.79-1.74-13.54-5.15-17.66-11.02-3.96-5.09-4.82-12.18-2.83-18.22 3.47-8.57 11.99-13.93 20.74-15.88zm697.12-.02c5.81-1.26 11.8-.74 17.7-.86 10.39-.19 21.41 3.97 27.45 12.75 4.99 6.96 4.14 17.27-1.66 23.51-6.98 8.14-18.33 11.6-28.8 10.45-6.55-.9-11.92-5.6-15.29-11.06-5.04-8.04-7.84-17.8-6.65-27.28.41-3.85 3.63-6.65 7.25-7.51z"/><path fill="#921717" d="M1280.505 1493.603c-1.98-6.05-4.01-12.53-2.92-18.94 1.04 10.23 5.04 20.21 11.54 28.2 5.8 7.14 14.51 12.17 23.84 12.37 13.16.33 26.85-4.61 35.59-14.71 4.14-4.6 6.63-10.46 7.74-16.5.97 7.5-1.95 14.97-6.4 20.89-7.32 9.56-19.1 14.99-30.92 16.17-7.39.87-15.2-.48-21.44-4.66-8.2-5.27-13.64-13.86-17.03-22.82zm-635.98-18.01c.91 2.73.19 5.6-.31 8.35-2.05 10.86-6.94 21.52-15.16 29.09-6.65 6.17-16 9.11-24.99 8.11-13.32-1.09-26.85-7.59-33.9-19.31-3.11-5.36-5.14-11.66-4.43-17.9 1.03 4.82 2.68 9.6 5.58 13.65 8.74 12.47 24.69 18.56 39.6 17.53 9.89-.76 18.62-6.96 24.17-14.95 5.01-7.29 8.3-15.8 9.44-24.57z"/><path fill="#A8AEBE" d="M480.005 1512.883c2.32-6.66 7.32-13.85 15.06-14.16 5.84.71 10.72 4.41 14.55 8.68 8.69 8.99 13.46 20.76 18.95 31.79 3.83 7.67 5.22 16.23 8.75 24.01 1.21 2.25.61 6.29 3.83 6.74 11.71 1.94 23.43 3.96 35.26 5.07 11.18 1.75 22.32 3.74 33.57 5.05 71.41 9.8 143.06 18.1 214.99 22.8 12.63 1.32 25.37 1.15 38.01 2.47 13.67.31 27.32 1.3 41.01 1.27 16.29 1.35 32.65.87 48.98 1.1 29 .16 58-.33 86.99-.23-8-.07-15.99-.56-23.98-1.01 14.34.14 28.7.25 43.02-.77 6.36-.26 12.75-.09 19.09-.96 33.14-1.49 66.21-4.36 99.27-7.23 12.71-1.61 25.55-2.15 38.21-4.23 4.77-.91 9.65-.74 14.46-1.29 49.47-5.57 98.79-12.3 148.03-19.58 9.19-.99 18.24-3.34 27.54-3.12-2.69 10.18-5.07 20.42-7.57 30.64-124.1 35.64-252.11 57.91-381.02 65.41-10.04.24-20.03 1.46-30.07 1.42-13.95.98-27.95.81-41.92 1.15-27.36.66-54.72-.19-82.07-.8-94.43-3.53-188.62-15.01-280.97-35.18-10.3-2.12-20.47-4.82-30.78-6.86 1.35 13.06 2.85 26.12 3.27 39.26-.06 3.99-.29 8.07.9 11.96l-.88-.08c-.2 11.27-.97 22.59-3.28 33.66-1.9-4.33-2.63-9.01-3.63-13.59-8.95-38.36-19.96-76.48-36.61-112.28-9.27-19.54-20.13-38.64-34.97-54.52 1.29-5.55 2.76-11.05 4.01-16.59zm960.59-10.39c3.75-3.21 9.38-4.06 13.95-2.25 6.23 3.48 9.26 10.48 11.46 16.94 2.62 9.05 4.17 18.4 4.99 27.79.75 4.55-.03 9.28 1.42 13.73 12.17-1.66 24.31-3.5 36.53-4.81 12.61-.68 25.02-3.85 37.71-3.36-6.52 3.62-13.84 5.4-20.72 8.19-18.06 6.62-36.32 12.68-54.53 18.87-2.01 24.25-4.96 48.56-11.24 72.12-.95 3.01-1.57 6.12-2.13 9.24-1.02 3.98-2.57 7.8-3.57 11.79-4.97 15.95-11.05 31.69-19.76 46.01-.77-4.29.57-8.51.95-12.75 4.86-40.94 7.75-82.4 3.7-123.56-2.37-19.8-5.7-39.84-13.9-58.16.09-1.08.22-2.19.83-3.09 3.72-6.38 8.69-11.94 14.31-16.7z"/><path fill="#787E8A" d="M1405.595 1569.283c6.09-15.86 10.71-32.52 19.86-47 8.2 18.32 11.53 38.36 13.9 58.16 4.05 41.16 1.16 82.62-3.7 123.56-.38 4.24-1.72 8.46-.95 12.75-3.75 6-8.07 11.86-13.84 16.08-3.91 2.84-9.31 4.47-13.84 2.13-5.55-2.87-8.3-8.95-10.47-14.47-5.15-14.74-5.95-30.52-6.31-45.98-.81.12-2.42.37-3.23.49 1.03-.59 2.57-.74 3.04-1.99.59-3.48.26-7.03.35-10.52-3.76-1.14-7.55.29-11.26.82-54.81 7.87-109.88 13.67-165.11 17.59-11.32 1.2-22.74 1.21-34.05 2.52-14.69.4-29.33 1.7-44 2.46-12.61 1.1-25.28.14-37.91.6 6.41.37 12.91-.44 19.25.95-12.76.44-25.54-.25-38.28.53-34.66 1.16-69.35 1.61-104.02 1.81-12.01.91-24.02.07-36.03-.04-27.01-.32-54.01-.96-81.01-1.65-14.07-.92-28.16-.28-42.24-.58 6.64-1.45 13.46-.63 20.2-1-12.32-.51-24.66.47-36.96-.61-37-2.19-74.03-4.15-110.94-7.61-13.01-.99-26.12-.99-38.95-3.63-11.44-.61-22.71-2.84-34.16-3.24-7.98-.77-15.95-1.73-23.9-2.77-5.79-.36-11.25-2.66-17.07-2.75-6.54-.13-12.94-1.94-19.5-1.57-.42-13.14-1.92-26.2-3.27-39.26 10.31 2.04 20.48 4.74 30.78 6.86 92.35 20.17 186.54 31.65 280.97 35.18 27.35.61 54.71 1.46 82.07.8 13.97-.34 27.97-.17 41.92-1.15 10.04.04 20.03-1.18 30.07-1.42 128.91-7.5 256.92-29.77 381.02-65.41 2.5-10.22 4.88-20.46 7.57-30.64z"/><path fill="#797F8B" d="M473.335 1559.833c.34-10.15.11-20.45 2.66-30.36 14.84 15.88 25.7 34.98 34.97 54.52 16.65 35.8 27.66 73.92 36.61 112.28 1 4.58 1.73 9.26 3.63 13.59-1.89 8.18-4.23 16.92-10.43 22.96-4.02 4.05-10.83 3.93-15.42.95-6.75-4.22-11.38-10.93-15.56-17.53-10.02-16.74-16.75-35.29-21.93-54.04-1.06-4.21-1.68-10.62-6.87-11.57-14.94-2.97-29.88-6.09-44.57-10.14-2.76-.54-5.59-.26-8.37-.65-6.76-4.09-14.68-5.21-22.08-7.64-19.33-5.9-38.53-12.54-56.57-21.73-10.53-5.57-21.04-11.81-29.01-20.83-6.21-6.82-10.52-17-6.73-26.02 2.64-5.85 8.68-9.01 14.43-11.09 3.48.46 6.6 2.15 9.79 3.54 39.44 16.37 79.72 30.68 120.49 43.39 5.87 1.62 11.59 3.81 17.58 4.98-1.53-14.82-3.07-29.69-2.62-44.61z"/><path fill="#787E8A" d="M1546.655 1550.533c6.02-1.36 12.23-.79 18.33-1.52 9.11-1.06 18.23.29 27.33.77 8.12 1.03 16.64 2.53 23.39 7.5 4.84 3.52 7.25 9.77 6.49 15.67-.85 8.66-6.53 15.89-12.78 21.54-9.88 8.69-21.6 14.95-33.49 20.43-16.13 7.27-32.91 12.98-49.86 18-5.66 1.77-11.52 2.93-16.96 5.35-9.51.31-18.2 4.64-27.48 6.23-7.12 1.87-14.45 2.95-21.46 5.21 6.28-23.56 9.23-47.87 11.24-72.12 18.21-6.19 36.47-12.25 54.53-18.87 6.88-2.79 14.2-4.57 20.72-8.19z"/><path fill="#A8AEBE" d="M328.095 1552.533c4.66-1.2 9.37-2.31 14.17-2.76 25.96-1.25 52-.07 77.73 3.46 17.84 1.74 35.49 5.16 53.34 6.6-.45 14.92 1.09 29.79 2.62 44.61-5.99-1.17-11.71-3.36-17.58-4.98-40.77-12.71-81.05-27.02-120.49-43.39-3.19-1.39-6.31-3.08-9.79-3.54z"/><path fill="#E1715F" d="M1481.625 1644.503c9.28-1.59 17.97-5.92 27.48-6.23-3.39 2.27-7.19 3.82-10.83 5.62-3.5 1.66-7.09 3.1-10.7 4.48-9.74 3.8-19.58 7.39-29.54 10.58.56-3.12 1.18-6.23 2.13-9.24 7.01-2.26 14.34-3.34 21.46-5.21z"/><path fill="#E1705E" d="M428.055 1639.843c2.78.39 5.61.11 8.37.65 14.69 4.05 29.63 7.17 44.57 10.14 5.19.95 5.81 7.36 6.87 11.57-6.71-1.47-13.17-3.86-19.79-5.66-5.03-1.41-9.92-3.28-14.72-5.31-4.78-2.15-9.68-4.01-14.46-6.15-3.63-1.73-7.39-3.19-10.84-5.24z"/><path fill="#231F20" d="M1487.575 1648.373c3.61-1.38 7.2-2.82 10.7-4.48.05 33.35 0 66.71.02 100.06-.11 9.08.64 18.31-1.71 27.2-5.29 23.74-24.95 43.41-48.65 48.85-9.45 2.49-19.3 1.63-28.95 1.78-12.65 0-25.3.01-37.94.01-15.41.02-30.73-5.67-42.42-15.71-14.27-12.05-22.91-30.44-23.1-49.11-.15-24.59.09-49.18-.11-73.77 23.93-2.06 47.85-4.52 71.6-8.2.81-.12 2.42-.37 3.23-.49.36 15.46 1.16 31.24 6.31 45.98 2.17 5.52 4.92 11.6 10.47 14.47 4.53 2.34 9.93.71 13.84-2.13 5.77-4.22 10.09-10.08 13.84-16.08 8.71-14.32 14.79-30.06 19.76-46.01 0 6.87-1.44 13.62-2.28 20.42-5.46 35.42-14.63 70.51-30.04 102.97-2.33 5.04-5.15 9.84-7.38 14.93 11.9-.14 24.2 1.39 35.71-2.49 15.63-5 28.54-17.73 33.75-33.29 2.17-6.2 2.91-12.81 2.93-19.35-.02-31.66-.01-63.32-.01-94.98 0-3.54-.3-7.11.43-10.58zm-1048.68-3.29c4.78 2.14 9.68 4 14.46 6.15.1 35.57 0 71.16.05 106.74.36 18.22 11.1 35.76 27.1 44.46 9.85 5.69 21.46 7.43 32.69 6.63-26.4-46.61-39.83-99.5-45.12-152.52 6.62 1.8 13.08 4.19 19.79 5.66 5.18 18.75 11.91 37.3 21.93 54.04 4.18 6.6 8.81 13.31 15.56 17.53 4.59 2.98 11.4 3.1 15.42-.95 6.2-6.04 8.54-14.78 10.43-22.96 2.31-11.07 3.08-22.39 3.28-33.66l.88.08c22.06 2.84 44.17 5.35 66.35 7.06-.05 18.22-.01 36.44-.02 54.66-.34 10.99 1.04 22.19-1.68 32.98-5.14 23.2-23.99 42.61-46.97 48.59-11.07 3.15-22.65 2.01-34 2.22-13.03-.1-26.07.19-39.1-.16-26.23-1.5-50.21-20.51-57.9-45.59-3.68-10.61-3.13-21.95-3.12-32.99-.02-32.66.04-65.32-.03-97.97z"/><path fill="#7995AA" d="M1458.035 1658.953c9.96-3.19 19.8-6.78 29.54-10.58-.73 3.47-.43 7.04-.43 10.58 0 31.66-.01 63.32.01 94.98-.02 6.54-.76 13.15-2.93 19.35-5.21 15.56-18.12 28.29-33.75 33.29-11.51 3.88-23.81 2.35-35.71 2.49 2.23-5.09 5.05-9.89 7.38-14.93 15.41-32.46 24.58-67.55 30.04-102.97.84-6.8 2.28-13.55 2.28-20.42 1-3.99 2.55-7.81 3.57-11.79zm-1004.68-7.72c4.8 2.03 9.69 3.9 14.72 5.31 5.29 53.02 18.72 105.91 45.12 152.52-11.23.8-22.84-.94-32.69-6.63-16-8.7-26.74-26.24-27.1-44.46-.05-35.58.05-71.17-.05-106.74z"/><path fill="#E2705E" d="M1379.145 1663.313c3.71-.53 7.5-1.96 11.26-.82-.09 3.49.24 7.04-.35 10.52-.47 1.25-2.01 1.4-3.04 1.99-23.75 3.68-47.67 6.14-71.6 8.2-9.17.36-18.29 1.41-27.46 1.57-2.66 0-5.35-.41-7.94.32-.43.09-1.31.25-1.74.34-11.44.31-22.85 1.2-34.3 1.12-9.32.48-18.63-.52-27.94 0 4.78-.03 9.56-.04 14.33.45-19 .85-38.04.56-57.06.75-18.66-.19-37.35.36-55.98-.32-6.34-1.39-12.84-.58-19.25-.95 12.63-.46 25.3.5 37.91-.6 14.67-.76 29.31-2.06 44-2.46 11.31-1.31 22.73-1.32 34.05-2.52 55.23-3.92 110.3-9.72 165.11-17.59zm-824.68 1.01c6.56-.37 12.96 1.44 19.5 1.57 5.82.09 11.28 2.39 17.07 2.75 7.95 1.04 15.92 2 23.9 2.77 11.45.4 22.72 2.63 34.16 3.24 12.83 2.64 25.94 2.64 38.95 3.63 36.91 3.46 73.94 5.42 110.94 7.61 12.3 1.08 24.64.1 36.96.61-6.74.37-13.56-.45-20.2 1-22.48.73-45.04-.27-67.52.52-9.41-.81-18.88-.22-28.31-.55-18.45-.22-36.89-.95-55.31-1.81-6.65.31-13.18-1.35-19.82-1.08-2.89.01-5.77-.08-8.65-.22-4.8-.43-9.61-.83-14.42-1.02-22.18-1.71-44.29-4.22-66.35-7.06-1.19-3.89-.96-7.97-.9-11.96z"/><path fill="#231F20" d="M636.135 1684.363c2.88.14 5.76.23 8.65.22-.19 8.75-.06 18.15 4.95 25.73 6.43 10.98 19.58 16.61 32.02 15.36-7.19-12.64-13.01-26.08-17.15-40.01 18.42.86 36.86 1.59 55.31 1.81 9.43.33 18.9-.26 28.31.55.24 8.05-.61 16.37-4.52 23.57-6.58 13.18-20.92 21.96-35.65 21.89-11.33-.07-22.66.11-33.98-.07-16.85-.66-32.26-13.17-36.56-29.44-1.89-6.37-1.22-13.08-1.38-19.61z"/><path fill="#7995AA" d="M644.785 1684.583c6.64-.27 13.17 1.39 19.82 1.08 4.14 13.93 9.96 27.37 17.15 40.01-12.44 1.25-25.59-4.38-32.02-15.36-5.01-7.58-5.14-16.98-4.95-25.73z"/><path fill="#231F20" d="M1278.275 1685.433c.43-.09 1.31-.25 1.74-.34 1.73-.36 3.51-.33 5.29-.35-.03 6.45.44 13.06-1.48 19.33-4.2 15.69-18.76 27.94-34.98 29.22-7.94.43-15.89.06-23.83.19-7.64-.16-15.49.71-22.9-1.65-13.04-3.73-23.7-14.58-27.34-27.63-1.6-5.34-1.61-10.95-1.47-16.45 19.02-.19 38.06.1 57.06-.75 6.44-.05 12.89-.26 19.34-.43-3.62 13.6-9.18 26.6-15.66 39.07 8.05-.14 16.51 1.04 24.12-2.3 9.82-3.86 17.36-12.92 19.51-23.24 1.06-4.82.68-9.79.6-14.67z"/><path fill="#7995AA" d="M1216.035 1686.553c9.31-.52 18.62.48 27.94 0 11.45.08 22.86-.81 34.3-1.12.08 4.88.46 9.85-.6 14.67-2.15 10.32-9.69 19.38-19.51 23.24-7.61 3.34-16.07 2.16-24.12 2.3 6.48-12.47 12.04-25.47 15.66-39.07-6.45.17-12.9.38-19.34.43-4.77-.49-9.55-.48-14.33-.45z"/></svg>