<svg style="enable-background:new 0 0 100 100" viewBox="0 0 100 100" xml:space="preserve" xmlns="http://www.w3.org/2000/svg"><path d="M68.251 72.84H30.749a4.09 4.09 0 0 1-4.089-4.089V31.249a4.09 4.09 0 0 1 4.089-4.089h37.502a4.09 4.09 0 0 1 4.089 4.089v37.502a4.09 4.09 0 0 1-4.089 4.089z"/><path d="M68.993 27.235a4.064 4.064 0 0 1 1.346 3.014v37.502a4.09 4.09 0 0 1-4.089 4.089H28.749c-.254 0-.501-.03-.742-.075a4.06 4.06 0 0 0 2.742 1.075h37.502a4.09 4.09 0 0 0 4.089-4.089V31.249a4.084 4.084 0 0 0-3.347-4.014z"/><path d="M68.251 72.84H30.749a4.09 4.09 0 0 1-4.089-4.089V31.249a4.09 4.09 0 0 1 4.089-4.089h37.502a4.09 4.09 0 0 1 4.089 4.089v37.502a4.09 4.09 0 0 1-4.089 4.089z" style="fill:none;stroke:#000;stroke-miterlimit:10"/></svg>